<svg version="1" xmlns="http://www.w3.org/2000/svg" width="933.333" height="933.333" viewBox="0 0 700.000000 700.000000"><path d="M160.8 151.5c-.2.2-6.8.6-14.7 1-14.9.7-20.9 1-32.1 2-3.6.3-9.9.7-14 1-7.2.5-13.4 1.1-21 2-1.9.2-6 .7-9 1-39.1 4.2-62.4 9.7-68.3 16.3-3.7 4.1-.1 21.8 10.7 51.8 11.1 31.2 32.1 82 46.6 112.9 1.6 3.3 5.6 12.1 9 19.5 9.6 21.1 27.6 54.5 50.8 94.5 33.3 57.5 58.3 93 67 95.2 2.9.7 8.8-3.3 13.7-9.3 2-2.4 4.2-5 5-5.7 1.7-1.8 23.3-33.6 27.2-40.2 1.7-2.8 6-9.9 9.6-15.8 3.7-6 6.7-11.1 6.7-11.4 0-.4.6-1.4 1.4-2.2.8-.9 2.6-3.9 4-6.6 2.8-5.2 3.1-5.7 8.4-14.2 1.7-3 3.2-5.5 3.2-5.8 0-.2 1.5-3 3.4-6.2 4.4-7.7 8.6-15.1 10.4-18.7l1.5-2.8 1.7 2.8c.9 1.6 8.4 14.8 16.7 29.4 15.7 27.6 29.6 50.7 39.2 64.8 3.1 4.6 6.5 9.8 7.5 11.5 8.2 13.4 23.9 30.7 27.9 30.7 3.1 0 10.1-6.2 17.2-15 6.1-7.6 27.5-39.5 27.5-40.9 0-.5.4-1.1.8-1.3.8-.3 23.1-37.5 32.8-54.8 3.2-5.7 6.4-11.4 7.1-12.5.7-1.1 1.7-3 2.2-4.3.6-1.2 1.6-2.2 2.2-2.2.7 0 4.2 2.4 7.8 5.4 21.4 17.4 47.1 28.3 74.1 31.4 13.8 1.6 37.8 0 48.5-3.2.6-.2 2.4-.6 4-1 1.7-.4 6.2-1.9 10-3.3 56.5-20.7 92.9-73.3 92-133.2-.9-63-42.6-116.5-103.3-132.7-12.3-3.3-18.4-4.3-31-4.9-2.6-.1-5.1-.9-6.5-2.2-3.9-3.6-14.6-7.6-26.2-9.8-2.5-.4-11-1.8-31.5-5-1.4-.2-5.9-.7-10-1-4.1-.4-8.2-.9-9.2-1-.9-.2-5.4-.6-10-1-4.5-.4-9.9-.8-11.8-1-4.2-.4-17.8-1.5-24.6-2-35.4-2.5-99-2.5-120.4 0-15.9 1.8-37.6 2.4-52.2 1.2-5.4-.4-13-1-17-1.2-4-.3-10.9-.8-15.3-1.1-8.6-.6-69.2-1.4-69.7-.9z"/></svg>