<svg xmlns="http://www.w3.org/2000/svg" width="64" height="64" viewBox="0 0 64 64">
  <path d="M19.666 51.85l-.31-.33 1.072-1.066c.59-.587 1.04-1.12 1-1.186-.04-.065-.237-.12-.437-.12-.59 0-2.47-.692-3.27-1.207-2.78-1.79-4.53-5.56-4.8-10.35-.12-2.11-.13-2.15-.65-2.15-.28 0-.6-.16-.94-.47-.92-.84-.79-2.29.27-2.93.46-.27.87-.28 19.54-.28H50.2l-.034-7.73c-.023-5.19-.087-7.92-.196-8.3-.54-1.9-2.713-3.24-4.614-2.83-1.41.31-2.396 1.05-3.013 2.29-.43.86-.385 1.12.32 1.77.78.72 1.33 1.72 1.518 2.75.21 1.22-.14 2.9-.66 3.1-.27.1-8.27-3.52-8.46-3.84-.37-.58.96-2.2 2.33-2.84.71-.334 1-.383 2.21-.38l1.39.007.24-.686c.33-.92 1.04-1.83 1.88-2.393 2.68-1.8 6.33-.76 7.7 2.186l.41.88.004 8.016v8.014l.57.09c.796.13 1.52.964 1.52 1.75 0 .98-.54 1.63-1.494 1.79-.306.054-.577.17-.604.257-.03.09-.085 1.01-.13 2.04-.19 4.55-1.812 8.19-4.48 10.06-.983.697-2.85 1.428-3.63 1.428-.195 0-.354.056-.354.12 0 .067.47.59 1.04 1.16l1.04 1.046-.39.39-.39.39-1.48-1.478-1.48-1.48H23.02l-1.44 1.444c-.79.79-1.478 1.44-1.525 1.44-.045 0-.224-.15-.395-.33zm24.168-3.984c3.887-1.286 5.917-4.75 6.238-10.647l.087-1.61-1.22-.07c-.67-.04-3.55-.06-6.41-.04s-7.06.03-9.32.04l-4.12.01.04 3.1c.02 2.01-.02 3.2-.12 3.39-.15.28-.3.29-4.31.29-3.04 0-4.2-.05-4.33-.18-.13-.12-.17-1.09-.17-3.43v-3.25l-3.2.04-3.2.042.1 1.47c.47 6.853 3.02 10.514 7.7 11.082.53.062 5.52.103 11.08.09l10.11-.028 1.01-.34zM28.016 40.41v-.94h-6.644v1.88h6.644zm0-4.84v-2.744h-6.644v5.49h6.644zm-7.8-1.95v-.794H16.27c-4.165 0-4.302.02-4.497.68-.065.218-.002.41.202.613.284.28.456.29 4.27.29h3.97zm31.84.568c.273-.27.3-.978.047-1.186-.26-.214.064-.21-11.958-.192l-11.056.016.03.76c.01.416.03.773.04.793 0 .02 5.11.03 11.34.03 10.1 0 11.35-.03 11.55-.23zm-8.93-13.145c.337-1.34-.64-3.213-2.032-3.894-1.483-.73-3.493-.36-4.492.83l-.384.45.413.19c4.52 2.07 6.08 2.77 6.23 2.77.1 0 .22-.16.27-.37z"/>
</svg>
