<svg xmlns="http://www.w3.org/2000/svg" width="64" height="64" viewBox="0 0 64 64">
  <path d="M12.167 45.333c-.056-.056-.1-3.148-.1-6.872 0-6.35.016-6.8.272-7.3.48-.95 1.34-1.47 2.42-1.47h.69V25.1c0-5.2.024-5.35 1.13-6.08l.58-.385 14.454-.044c10.016-.03 14.62.01 14.99.11.59.17 1.322.73 1.6 1.21.125.22.2 1.68.25 5.01l.07 4.7.897.086c1.06.1 1.767.56 2.21 1.434.277.534.29.86.29 7.253 0 5.015-.043 6.738-.173 6.868-.11.117-.68.18-1.58.18-1.248 0-1.43-.033-1.56-.28-.087-.16-.15-1.3-.15-2.673v-2.4l-16.504.034-16.505.037-.07 2.6-.073 2.6-1.526.04c-.837.025-1.57-.002-1.624-.06zm2.178-3.03l.04-2.04-.455-.092c-.892-.17-.853-.26-.853 1.98 0 1.14.047 2.12.103 2.18.057.06.333.09.614.06l.51-.04zm36.462.052c.024-1.132.01-2.106-.032-2.163-.042-.058-.318-.065-.614-.017l-.53.087v4.15h1.14zm-.004-4.442l.047-1.156H13.076v2.312h37.68l.047-1.16zm.017-4.224c-.03-1.98-.126-2.37-.665-2.71-.49-.31-35.818-.33-36.38-.02-.595.32-.7.74-.7 2.8v1.9l18.888-.037 18.887-.03-.03-1.91zm-32.376-4.27c.013-.14.03-1.21.037-2.38.02-1.913.05-2.16.32-2.527.57-.768.62-.775 5.73-.735l4.73.037.47.47.47.472.05 2.46.048 2.457 1.69-.04 1.687-.04.073-2.47c.08-2.7.12-2.83.97-3.185.69-.29 9.09-.28 9.783.01.78.326.866.623.946 3.262l.07 2.386h1.88l.04-4.335c.026-3.03-.013-4.453-.13-4.736-.356-.863.35-.825-15.442-.825H17.39l-.423.423-.422.422v3.456c0 1.9-.042 3.956-.093 4.564l-.094 1.105h1.033c.88 0 1.04-.04 1.06-.254zm10.634-2.1l-.04-2.35H19.65l-.04 2.16c-.023 1.19-.01 2.24.026 2.336.05.13 1.232.176 4.774.183l4.707.01-.04-2.346zm15.312.22c.024-1.26-.02-2.18-.114-2.35-.148-.28-.312-.29-4.67-.29-3.32 0-4.56.043-4.69.17-.183.185-.257 4.317-.08 4.494.05.05 2.213.077 4.803.06l4.71-.033.04-2.06z"/>
</svg>
