<svg xmlns="http://www.w3.org/2000/svg" width="64" height="64" viewBox="0 0 64 64">
  <path d="M7.153 45.95v-.506h1.58c1.378 0 1.588-.032 1.653-.253.04-.13.375-1.42.74-2.85.368-1.43.89-3.45 1.164-4.5.66-2.53.665-3.68.032-6.59l-.468-2.14-.46.078c-.254.04-.557 0-.675-.095-.14-.107-.64-2.03-1.33-5.04-1-4.4-1.1-4.924-.94-5.394.35-1.08 2-1.47 2.85-.68.46.432.39.19 1.93 6.923.63 2.8.73 3.384.57 3.574-.11.125-.31.23-.45.23-.15 0-.31.062-.36.142-.05.08.09.927.31 1.88l.39 1.733h7.48c7.245 0 7.482.01 7.63.28.08.154.15 1.027.15 1.94 0 2.016-.06 2.115-1.315 2.115h-.86l.04 4.297.04 4.3 1.7.04 1.696.04V28.69h-2.28c-1.58 0-2.334-.054-2.455-.174-.2-.2-.242-3.536-.05-3.84.095-.148 3.175-.186 15.596-.19 8.51-.005 15.54.034 15.62.084.22.135.19 3.726-.03 3.946-.12.12-.872.173-2.455.173h-2.28v16.75h4.044v1.01H7.152v-.51zm18.6-4.876l.038-4.297h-6.06c-3.33 0-6.07.033-6.07.073 0 .04-.48 1.957-1.08 4.26-.59 2.304-1.08 4.222-1.08 4.262 0 .04 3.2.058 7.12.037l7.115-.04.04-4.3zm25.023-4.008v-8.378H48.32v4.25c0 3.73-.028 4.28-.234 4.486-.278.278-.885.192-1.615-.228-.62-.36-1.28-.347-1.9.034-.67.41-1.84.407-2.51-.008-.62-.387-1.24-.382-1.91.016-.7.413-1.66.412-2.47-.002-.74-.385-1.19-.395-1.89-.043-.94.476-1.41.515-1.67.138-.2-.28-.23-.91-.23-4.48v-4.16h-2.46v16.76h19.35v-8.38zm-10.864-.94c.373-.198.913-.36 1.2-.36.287 0 .827.162 1.2.36.374.2.835.362 1.025.362.19 0 .652-.162 1.025-.36.81-.432 1.364-.452 2.19-.077l.613.28.022-4c.012-2.2.035-4.45.05-5.01.017-.55.002-1.19-.032-1.41l-.063-.39H35.03v10.82l.615-.28c.813-.36 1.332-.35 2.203.07.93.45 1.238.45 2.064.01zM27.81 34.61V33.6H13.796v2.02H27.81zm-15.15-6.905c.14-.158-1.883-8.742-2.117-8.977-.267-.268-.982-.046-1.054.328-.03.142.39 2.21.93 4.597l.98 4.34.58-.094c.32-.06.62-.14.67-.2zm42.92-.155c.214-.015.252-.17.252-1.03v-1.015l-3.783.04-3.79.037.01.83c0 .457.02.893.02.97.01.075.45.156.99.18.9.04 5.7.03 6.28-.012zm-21.704-1.03v-1.01H26.51v2.022h7.366z"/>
</svg>
