<svg xmlns="http://www.w3.org/2000/svg" width="64" height="64" viewBox="0 0 64 64">
  <path d="M19.762 50.607c-.082-.154-.15-.64-.15-1.083v-.804h-.624c-1.78 0-3.348-.97-4.086-2.528l-.343-.722-.01-7.597v-7.597l.44-.893c.49-.988 1.39-1.786 2.31-2.063l.55-.164.04-4.927c.04-4.79.05-4.96.38-5.78.46-1.17 1.82-2.53 2.99-3l.85-.35H41.9l.94.44c1.15.54 2.156 1.52 2.7 2.62l.403.83.045 5.02.04 5.02.824.42c1.047.53 1.785 1.21 2.216 2.03l.34.65v7.66c0 7.48-.003 7.67-.3 8.31-.71 1.533-1.99 2.395-3.79 2.55l-1.03.083v.89c0 .5-.077.96-.175 1.06-.116.12-.84.17-2.303.17-2.46 0-2.432.017-2.432-1.36v-.8H24.52v.852c0 1.382.133 1.31-2.395 1.31-2.04 0-2.23-.02-2.36-.28zm3.608-.984c0-.14.04-.4.09-.578.085-.32.067-.325-1.303-.325h-1.39v1.155h1.3c1.142 0 1.3-.03 1.303-.252zm19.905-.362l.045-.54h-2.762v1.17l1.336-.04 1.336-.04.045-.54zm2.948-1.84c.662-.18 1.326-.73 1.797-1.47l.358-.56-.014-7.36c-.01-6.43-.042-7.43-.248-7.97-.46-1.19-1.376-1.83-2.61-1.83-1.377 0-2.407.6-2.955 1.71-.32.66-.33.81-.4 6.02l-.07 5.35-10.03.04c-7.93.03-10.05 0-10.14-.147-.06-.1-.11-2.45-.12-5.22 0-3.354-.05-5.226-.16-5.59-.68-2.28-3.77-2.91-5.28-1.077-.76.924-.78 1.12-.73 8.884.05 7.09.05 7.15.37 7.752.36.66 1.09 1.293 1.73 1.484.61.18 27.88.18 28.53-.006zm-5.16-10.17v-3.04L32 34.17l-9.065-.04v6.217l9.065-.04 9.063-.038v-3.04zm.1-5.67c.047-1.24.12-1.66.373-2.13.63-1.16 1.627-1.95 2.822-2.25l.695-.17-.045-4.78c-.04-4.2-.076-4.85-.3-5.35-.437-.96-1.204-1.76-2.152-2.24l-.89-.44h-9.58c-10.95 0-10.45-.05-11.78 1.26-1.226 1.21-1.27 1.46-1.27 6.91v4.69l.396.09c1.292.27 2.442 1.16 3.014 2.33.32.65.402 1.058.458 2.23l.07 1.43h18.128l.06-1.55zm-20.656-11c.043-3.06.055-3.16.392-3.66.19-.28.57-.66.85-.85.48-.33.63-.35 3.15-.39l2.64-.04v1.03H25.2c-2.074 0-2.402.04-2.81.28-.836.51-.91.84-.91 3.97v2.83h-1.02l.044-3.15zm8.206-4.43v-.5h1.444v1.01h-1.444z"/>
</svg>
