<?xml version="1.0" encoding="UTF-8" standalone="no"?>
<svg
   xmlns:dc="http://purl.org/dc/elements/1.1/"
   xmlns:cc="http://creativecommons.org/ns#"
   xmlns:rdf="http://www.w3.org/1999/02/22-rdf-syntax-ns#"
   xmlns:svg="http://www.w3.org/2000/svg"
   xmlns="http://www.w3.org/2000/svg"
   xmlns:sodipodi="http://sodipodi.sourceforge.net/DTD/sodipodi-0.dtd"
   xmlns:inkscape="http://www.inkscape.org/namespaces/inkscape"
   width="800"
   height="600"
   viewBox="0 0 800 600"
   id="svg4141"
   version="1.1"
   inkscape:version="0.91+devel+osxmenu r12911"
   sodipodi:docname="background.svg">
  <metadata
     id="metadata5355">
    <rdf:RDF>
      <cc:Work
         rdf:about="">
        <dc:format>image/svg+xml</dc:format>
        <dc:type
           rdf:resource="http://purl.org/dc/dcmitype/StillImage" />
        <dc:title></dc:title>
      </cc:Work>
    </rdf:RDF>
  </metadata>
  <defs
     id="defs5353" />
  <sodipodi:namedview
     pagecolor="#ffffff"
     bordercolor="#666666"
     borderopacity="1"
     objecttolerance="10"
     gridtolerance="10"
     guidetolerance="10"
     inkscape:pageopacity="0"
     inkscape:pageshadow="2"
     inkscape:window-width="640"
     inkscape:window-height="480"
     id="namedview5351"
     showgrid="false"
     inkscape:zoom="0.55419494"
     inkscape:cx="400"
     inkscape:cy="300"
     inkscape:current-layer="svg4141">
    <inkscape:grid
       type="xygrid"
       id="grid5960" />
  </sodipodi:namedview>
  <rect
     style="opacity:1;fill:#00a1e4;fill-opacity:1;stroke:none;stroke-width:8;stroke-linecap:round;stroke-linejoin:round;stroke-miterlimit:4;stroke-dasharray:none;stroke-dashoffset:18;stroke-opacity:1"
     id="rect6011"
     width="800"
     height="600"
     x="-800"
     y="3.2424927e-05"
     rx="0.5"
     ry="0.5"
     transform="scale(-1,1)" />
  <path
     style="opacity:1;fill:#ffffff;fill-opacity:0.50196078;stroke:none;stroke-width:8;stroke-linecap:round;stroke-linejoin:round;stroke-miterlimit:4;stroke-dasharray:none;stroke-dashoffset:18;stroke-opacity:1"
     d="m 799.5,0 c 0.277,0 0.5,0.223 0.5,0.5 l 0,599 c 0,0.277 -0.223,0.5 -0.5,0.5 l -799,0 C 0.223,600 0,599.777 0,599.5 L 0,445.19727 C 125.89894,451.96741 308.20772,399.57046 515.00195,161.80273 555.91905,114.75711 594.13294,55.055772 628.19531,0 L 799.5,0 Z"
     id="rect6019"
     inkscape:connector-curvature="0" />
  <path
     style="opacity:1;fill:#ffffff;fill-opacity:0.50196078;stroke:none;stroke-width:8;stroke-linecap:round;stroke-linejoin:round;stroke-miterlimit:4;stroke-dasharray:none;stroke-dashoffset:18;stroke-opacity:1"
     d="M 800,245.94727 800,599.5 c 0,0.277 -0.223,0.5 -0.5,0.5 l -799,0 C 0.223,600 0,599.777 0,599.5 L 0,522.87891 C 122.5304,561.92143 256.51856,530.82388 459.14453,420.28906 586.77141,350.66712 672.33313,277.31545 800,245.94727 Z"
     id="rect6023"
     inkscape:connector-curvature="0"
     sodipodi:nodetypes="csssscsc" />
</svg>
