<?xml version="1.0" encoding="UTF-8" standalone="no"?>
<svg
   xmlns:dc="http://purl.org/dc/elements/1.1/"
   xmlns:cc="http://creativecommons.org/ns#"
   xmlns:rdf="http://www.w3.org/1999/02/22-rdf-syntax-ns#"
   xmlns:svg="http://www.w3.org/2000/svg"
   xmlns="http://www.w3.org/2000/svg"
   xmlns:sodipodi="http://sodipodi.sourceforge.net/DTD/sodipodi-0.dtd"
   xmlns:inkscape="http://www.inkscape.org/namespaces/inkscape"
   width="43"
   height="43"
   viewBox="0 0 43 43"
   id="svg4141"
   version="1.1"
   inkscape:version="0.91+devel+osxmenu r12911"
   sodipodi:docname="qr.svg">
  <metadata
     id="metadata5355">
    <rdf:RDF>
      <cc:Work
         rdf:about="">
        <dc:format>image/svg+xml</dc:format>
        <dc:type
           rdf:resource="http://purl.org/dc/dcmitype/StillImage" />
      </cc:Work>
    </rdf:RDF>
  </metadata>
  <defs
     id="defs5353" />
  <sodipodi:namedview
     pagecolor="#ffffff"
     bordercolor="#666666"
     borderopacity="1"
     objecttolerance="10"
     gridtolerance="10"
     guidetolerance="10"
     inkscape:pageopacity="0"
     inkscape:pageshadow="2"
     inkscape:window-width="640"
     inkscape:window-height="480"
     id="namedview5351"
     showgrid="true"
     inkscape:zoom="14.581395"
     inkscape:cx="21.5"
     inkscape:cy="21.5"
     inkscape:current-layer="svg4141">
    <inkscape:grid
       type="xygrid"
       id="grid5960" />
  </sodipodi:namedview>
  <rect
     style="fill:#ffffff;fill-opacity:1"
     id="rect4145"
     ry="0.5"
     rx="0.5"
     y="22"
     x="14"
     height="7"
     width="7" />
  <rect
     style="fill:#00a1e4;fill-opacity:1"
     id="rect4147"
     rx="0.5"
     ry="0.5"
     y="23"
     x="15"
     height="5"
     width="5" />
  <rect
     style="fill:#ffffff;fill-opacity:1"
     id="rect5331"
     ry="0.5"
     rx="0.5"
     y="24"
     x="16"
     height="3"
     width="3" />
  <rect
     style="fill:#ffffff;fill-opacity:1"
     id="rect5333"
     rx="0.5"
     ry="0.5"
     y="14"
     x="14"
     height="7"
     width="7" />
  <rect
     style="fill:#00a1e4;fill-opacity:1"
     id="rect5335"
     ry="0.5"
     rx="0.5"
     y="15"
     x="15"
     height="5"
     width="5" />
  <rect
     style="fill:#ffffff;fill-opacity:1"
     id="rect5337"
     rx="0.5"
     ry="0.5"
     y="16"
     x="16"
     height="3"
     width="3" />
  <rect
     style="fill:#ffffff;fill-opacity:1"
     id="rect5339"
     ry="0.5"
     rx="0.5"
     y="14"
     x="22"
     height="7"
     width="7" />
  <rect
     style="fill:#00a1e4;fill-opacity:1"
     id="rect5341"
     rx="0.5"
     ry="0.5"
     y="15"
     x="23"
     height="5"
     width="5" />
  <rect
     style="fill:#ffffff;fill-opacity:1"
     id="rect5343"
     ry="0.5"
     rx="0.5"
     y="16"
     x="24"
     height="3"
     width="3" />
  <rect
     style="fill:#ffffff;fill-opacity:1"
     id="rect5345"
     ry="0.5"
     rx="0.5"
     y="-29"
     x="22"
     height="5"
     width="5"
     transform="scale(1,-1)" />
  <rect
     style="fill:#00a1e4;fill-opacity:1"
     id="rect5347"
     rx="0.5"
     ry="0.5"
     y="-28"
     x="23"
     height="3"
     width="3"
     transform="scale(1,-1)" />
  <circle
     style="fill:#ffffff;fill-opacity:1"
     id="circle5349"
     r="0.5"
     cy="-26.5"
     cx="24.5"
     transform="scale(1,-1)" />
  <rect
     style="opacity:1;fill:#ffffff;fill-opacity:1;stroke:none;stroke-width:8;stroke-linecap:round;stroke-linejoin:round;stroke-miterlimit:4;stroke-dasharray:none;stroke-dashoffset:18;stroke-opacity:1"
     id="rect5962"
     width="1"
     height="3"
     x="28"
     y="-29"
     rx="0.5"
     ry="0.5"
     transform="scale(1,-1)" />
  <path
     style="opacity:1;fill:#ffffff;fill-opacity:1;stroke:none;stroke-width:8;stroke-linecap:round;stroke-linejoin:round;stroke-miterlimit:4;stroke-dasharray:none;stroke-dashoffset:18;stroke-opacity:1"
     d="M 28.5,25 C 28.223,25 28,24.777 28,24.5 l 0,-1 C 28,23.223858 27.776142,23 27.5,23 27.223,23 27,22.777 27,22.5 27,22.223 27.223,22 27.5,22 l 1,0 c 0.277,0 0.5,0.223 0.5,0.5 l 0,2 c 0,0.277 -0.223,0.5 -0.5,0.5 z"
     id="rect5964"
     inkscape:connector-curvature="0" />
  <rect
     transform="matrix(0,-1,-1,0,0,0)"
     ry="0.5"
     rx="0.5"
     y="-26"
     x="-23"
     height="2"
     width="1"
     id="rect5968"
     style="opacity:1;fill:#ffffff;fill-opacity:1;stroke:none;stroke-width:8;stroke-linecap:round;stroke-linejoin:round;stroke-miterlimit:4;stroke-dasharray:none;stroke-dashoffset:18;stroke-opacity:1" />
  <circle
     cx="22.5"
     cy="-22.5"
     r="0.5"
     id="circle5970"
     style="fill:#ffffff;fill-opacity:1"
     transform="scale(1,-1)" />
  <path
     style="opacity:1;fill:#ffffff;fill-opacity:1;stroke:none;stroke-width:8;stroke-linecap:round;stroke-linejoin:round;stroke-miterlimit:4;stroke-dasharray:none;stroke-dashoffset:18;stroke-opacity:1"
     d="M 31.5,28 C 31.223,28 31,28.223 31,28.5 l 0,2 c 0,0.276142 -0.223858,0.5 -0.5,0.5 l -2,0 c -0.277,0 -0.5,0.223 -0.5,0.5 0,0.277 0.223,0.5 0.5,0.5 l 3,0 c 0.277,0 0.5,-0.223 0.5,-0.5 l 0,-3 C 32,28.223 31.777,28 31.5,28 Z"
     id="path5981"
     inkscape:connector-curvature="0"
     sodipodi:nodetypes="ssssssccccs" />
  <path
     sodipodi:nodetypes="ssssssccccs"
     inkscape:connector-curvature="0"
     id="path5986"
     d="m 28,11.5 c 0,0.277 0.223,0.5 0.5,0.5 l 2,0 c 0.276142,0 0.5,0.223858 0.5,0.5 l 0,2 c 0,0.277 0.223,0.5 0.5,0.5 0.277,0 0.5,-0.223 0.5,-0.5 l 0,-3 C 32,11.223 31.777,11 31.5,11 l -3,0 C 28.223,11 28,11.223 28,11.5 Z"
     style="opacity:1;fill:#ffffff;fill-opacity:1;stroke:none;stroke-width:8;stroke-linecap:round;stroke-linejoin:round;stroke-miterlimit:4;stroke-dasharray:none;stroke-dashoffset:18;stroke-opacity:1" />
  <path
     sodipodi:nodetypes="ssssssccccs"
     inkscape:connector-curvature="0"
     id="path5988"
     d="m 11.5,28 c 0.277,0 0.5,0.223 0.5,0.5 l 0,2 c 0,0.276142 0.223858,0.5 0.5,0.5 l 2,0 c 0.277,0 0.5,0.223 0.5,0.5 0,0.277 -0.223,0.5 -0.5,0.5 l -3,0 C 11.223,32 11,31.777 11,31.5 l 0,-3 C 11,28.223 11.223,28 11.5,28 Z"
     style="opacity:1;fill:#ffffff;fill-opacity:1;stroke:none;stroke-width:8;stroke-linecap:round;stroke-linejoin:round;stroke-miterlimit:4;stroke-dasharray:none;stroke-dashoffset:18;stroke-opacity:1" />
  <path
     style="opacity:1;fill:#ffffff;fill-opacity:1;stroke:none;stroke-width:8;stroke-linecap:round;stroke-linejoin:round;stroke-miterlimit:4;stroke-dasharray:none;stroke-dashoffset:18;stroke-opacity:1"
     d="m 15,11.5 c 0,0.277 -0.223,0.5 -0.5,0.5 l -2,0 C 12.223858,12 12,12.223858 12,12.5 l 0,2 C 12,14.777 11.777,15 11.5,15 11.223,15 11,14.777 11,14.5 l 0,-3 C 11,11.223 11.223,11 11.5,11 l 3,0 c 0.277,0 0.5,0.223 0.5,0.5 z"
     id="path5990"
     inkscape:connector-curvature="0"
     sodipodi:nodetypes="ssssssccccs" />
</svg>
