<svg xmlns="http://www.w3.org/2000/svg" width="20" height="12" viewBox="0 0 20 12">
  <path fill="#e1e0d1" d="M1.5 0c-.276 0-.5.224-.5.5v3c0 .276-.224.5-.5.5s-.5.224-.5.5V11c.53.64 1.25 1 2 1s1.47-.36 2-1 1.25-1 2-1 1.47.36 2 1 1.25 1 2 1 1.47-.36 2-1 1.25-1 2-1 1.47.36 2 1 1.25 1 2 1 1.47-.36 2-1V4.5c0-.276-.224-.5-.5-.5s-.5-.224-.5-.5v-3c0-.276-.224-.5-.5-.5h-1c-.276 0-.5.224-.5.5v3c0 .276-.224.5-.5.5h-1c-.276 0-.5-.224-.5-.5v-3c0-.276-.224-.5-.5-.5h-1c-.276 0-.5.224-.5.5v3c0 .276-.224.5-.5.5h-1c-.276 0-.5-.224-.5-.5v-3c0-.276-.224-.5-.5-.5h-1c-.276 0-.5.224-.5.5v3c0 .276-.224.5-.5.5h-1c-.276 0-.5-.224-.5-.5v-3c0-.276-.224-.5-.5-.5h-1c-.276 0-.5.224-.5.5v3c0 .276-.224.5-.5.5h-1c-.276 0-.5-.224-.5-.5v-3c0-.276-.224-.5-.5-.5h-1z"/>
</svg>
