<svg xmlns="http://www.w3.org/2000/svg" width="16.5" height="8.5" viewBox="0 0 16.5 8.5">
  <path fill-opacity=".1" d="M12.5.5c-.5 0-.5 4-1 4s-.5-1-1-1S10 7 9.5 7h-1C8 7 8 6 7.5 6s-.5 1-1 1h-1C5 7 5 8 4.5 8H.75c-.138 0-.25.112-.25.25s.112.25.25.25h15.5c.138 0 .25-.112.25-.25S16.388 8 16.25 8c-.5 0-.25-1-.75-1s-.5-1.5-1-1.5-.5-3-1-3-.5-2-1-2z"/>
  <path fill="#576bf2" d="M12 0c-.5 0-.5 4-1 4s-.5-1-1-1-.5 3.5-1 3.5H8c-.5 0-.5-1-1-1s-.5 1-1 1H5c-.5 0-.5 1-1 1H.25c-.138 0-.25.112-.25.25S.112 8 .25 8h15.5c.138 0 .25-.112.25-.25s-.112-.25-.25-.25c-.5 0-.25-1-.75-1S14.5 5 14 5s-.5-3-1-3-.5-2-1-2z"/>
</svg>
