<?xml version="1.0" encoding="UTF-8" standalone="no"?>
<!-- Created with Inkscape (http://www.inkscape.org/) -->

<svg
   xmlns:dc="http://purl.org/dc/elements/1.1/"
   xmlns:cc="http://creativecommons.org/ns#"
   xmlns:rdf="http://www.w3.org/1999/02/22-rdf-syntax-ns#"
   xmlns:svg="http://www.w3.org/2000/svg"
   xmlns="http://www.w3.org/2000/svg"
   xmlns:xlink="http://www.w3.org/1999/xlink"
   xmlns:sodipodi="http://sodipodi.sourceforge.net/DTD/sodipodi-0.dtd"
   xmlns:inkscape="http://www.inkscape.org/namespaces/inkscape"
   width="64"
   height="64"
   viewBox="0 0 16.933333 16.933334"
   id="svg2"
   version="1.1"
   inkscape:version="0.91+devel+osxmenu r12911"
   sodipodi:docname="time2shred.svg">
  <defs
     id="defs4">
    <linearGradient
       inkscape:collect="always"
       id="linearGradient4228">
      <stop
         style="stop-color:#f53f4e;stop-opacity:1"
         offset="0"
         id="stop4230" />
      <stop
         style="stop-color:#c5d2de;stop-opacity:1"
         offset="1"
         id="stop4232" />
    </linearGradient>
    <linearGradient
       inkscape:collect="always"
       xlink:href="#linearGradient4228"
       id="linearGradient4234"
       x1="19.579168"
       y1="297"
       x2="2.6458335"
       y2="280.06665"
       gradientUnits="userSpaceOnUse"
       gradientTransform="translate(-22.225001,-577.06664)" />
    <filter
       style="color-interpolation-filters:sRGB;"
       inkscape:label="Drop Shadow"
       id="filter4760">
      <feFlood
         flood-opacity="0.305882"
         flood-color="rgb(70,4,9)"
         result="flood"
         id="feFlood4762" />
      <feComposite
         in="flood"
         in2="SourceGraphic"
         operator="in"
         result="composite1"
         id="feComposite4764" />
      <feGaussianBlur
         in="composite1"
         stdDeviation="0.3"
         result="blur"
         id="feGaussianBlur4766" />
      <feOffset
         dx="0"
         dy="0.3"
         result="offset"
         id="feOffset4768" />
      <feComposite
         in="SourceGraphic"
         in2="offset"
         operator="over"
         result="composite2"
         id="feComposite4770" />
    </filter>
  </defs>
  <sodipodi:namedview
     id="base"
     pagecolor="#ffffff"
     bordercolor="#666666"
     borderopacity="1.0"
     inkscape:pageopacity="0.0"
     inkscape:pageshadow="2"
     inkscape:zoom="3.3808543"
     inkscape:cx="32"
     inkscape:cy="32"
     inkscape:document-units="px"
     inkscape:current-layer="g4152"
     showgrid="false"
     units="px"
     inkscape:snap-bbox="true"
     inkscape:bbox-paths="true"
     inkscape:bbox-nodes="true"
     inkscape:snap-bbox-edge-midpoints="true"
     inkscape:snap-bbox-midpoints="true" />
  <metadata
     id="metadata7">
    <rdf:RDF>
      <cc:Work
         rdf:about="">
        <dc:format>image/svg+xml</dc:format>
        <dc:type
           rdf:resource="http://purl.org/dc/dcmitype/StillImage" />
        <dc:title></dc:title>
      </cc:Work>
    </rdf:RDF>
  </metadata>
  <g
     inkscape:label="Laag 1"
     inkscape:groupmode="layer"
     id="layer1"
     transform="translate(0,-280.06666)">
    <g
       id="g4152"
       transform="translate(-2.6458334)">
      <rect
         style="opacity:1;fill:url(#linearGradient4234);fill-opacity:1;stroke:none;stroke-width:1.0583334;stroke-linecap:round;stroke-linejoin:round;stroke-miterlimit:4;stroke-dasharray:none;stroke-dashoffset:0;stroke-opacity:1"
         id="rect4226"
         width="16.933334"
         height="16.933334"
         x="-19.579168"
         y="-297"
         transform="scale(-1)" />
      <path
         style="fill:#000000;stroke-width:1"
         d="m -14.166667,280.27068 c 0.892275,-0.42342 1.797323,-0.17535 2.294347,0.62885 0.673472,1.0897 0.93389,4.43803 0.678442,8.72296 -0.138892,2.32975 -0.23917,4.66391 -0.316092,7.3775 L -15.220964,297 c -0.05178,-2.19213 -0.113862,-3.97837 -0.185487,-5.15077 -0.149991,-2.45528 -0.25623,-6.83201 -0.176992,-7.46604 0.0059,-1.77812 0.369221,-3.57158 1.416776,-4.11248 z"
         id="path4192"
         inkscape:connector-curvature="0"
         sodipodi:nodetypes="csscccccc" />
      <g
         id="g4236"
         style="fill:#c5d1dd;fill-opacity:1;filter:url(#filter4760)">
        <path
           style="fill:#c5d1dd;stroke-width:1;fill-opacity:1"
           d="m 13.909461,279.63845 c 1.286042,0.45829 1.928211,1.58542 1.627959,2.85732 -0.406846,1.72343 -3.425156,5.25084 -7.8631969,9.18949 -2.413001,2.14148 -4.7925684,4.32501 -7.52018356,6.90225 l -3.62736104,-3.62734 c 2.0921058,-2.19334 3.77740374,-4 4.8533687,-5.21598 2.2533286,-2.54655 6.4275659,-6.92848 7.1247579,-7.47077 1.7438469,-1.73223 3.8519779,-3.13018 5.4046269,-2.63494 z"
           id="path4210"
           inkscape:connector-curvature="0"
           sodipodi:nodetypes="csscccccc" />
        <path
           sodipodi:nodetypes="csscccccc"
           inkscape:connector-curvature="0"
           id="path4212"
           d="m 17.878208,284.66554 c 1.286041,0.45829 1.92821,1.58542 1.627958,2.85732 -0.406845,1.72343 -3.425157,5.25084 -7.863196,9.18949 -2.4129987,2.14148 -4.7925667,4.32501 -7.5201807,6.90225 l -3.62736092,-3.62733 c 2.09210582,-2.19335 3.77740392,-4.00001 4.85336792,-5.21599 2.253328,-2.54655 6.4275637,-6.92848 7.1247547,-7.47077 1.743847,-1.73223 3.851977,-3.13018 5.404628,-2.63494 z"
           style="fill:#c5d1dd;stroke-width:1;fill-opacity:1" />
      </g>
      <g
         id="g4240"
         style="fill:#f5404f;fill-opacity:1">
        <path
           id="path4194"
           d="m 11.377085,282.97708 a 5.291666,5.2916655 0 0 0 -5.2916665,5.29166 5.291666,5.2916655 0 0 0 1.4045655,3.58118 c 0.061418,-0.0546 0.12303,-0.11031 0.1844847,-0.16485 1.040166,-0.92312 1.9981622,-1.82199 2.8670083,-2.682 -0.04425,-0.0248 -0.06733,-0.0342 -0.121956,-0.0651 -0.133132,-0.0753 -0.246788,-0.13698 -0.252698,-0.13694 -0.0058,1.3e-4 -0.07248,0.10186 -0.148311,0.22634 -0.1682223,0.27613 -0.3932227,0.62447 -0.5033285,0.77928 -0.160428,0.22563 -0.2475572,0.29278 -0.3793051,0.29301 -0.061616,9e-5 -0.082266,-0.008 -0.2759522,-0.108 -0.1150652,-0.0594 -0.2104605,-0.11608 -0.2123901,-0.12558 -0.00185,-0.009 0.09228,-0.18338 0.2092894,-0.38602 0.2302688,-0.39896 0.4836827,-0.8529 0.5519045,-0.98857 0.04991,-0.0991 0.050116,-0.0987 -0.062528,-0.14521 -0.089879,-0.0373 -0.1103132,-0.0534 -0.1271241,-0.10439 -0.040813,-0.12374 0.1261827,-0.41244 0.2619994,-0.4532 0.041288,-0.0124 0.060197,-0.0113 0.1462445,0.0103 0.054476,0.0138 0.1048613,0.0213 0.1116211,0.0171 0.016002,-0.0103 0.1170128,-0.22517 0.1901693,-0.40618 0.076865,-0.19028 0.1437908,-0.39573 0.1452108,-0.44648 l 0.0016,-0.0414 -0.1550293,0.003 c -0.5662795,0.01 -1.6702797,0.0659 -2.6303304,0.13384 -0.1290622,0.009 -0.239876,0.013 -0.24598,0.01 -0.016949,-0.0105 -6.614e-4,-0.19157 0.026872,-0.29663 0.049204,-0.18779 0.1652987,-0.3866 0.250114,-0.42943 0.2032424,-0.10255 1.2290222,-0.19908 2.7367837,-0.25683 0.247273,-0.009 0.822053,-0.014 1.397848,-0.014 l 0,-5.3e-4 c 0.575787,-5e-5 1.15254,0.004 1.405599,0.014 0.142701,0.005 0.253015,0.0126 0.385506,0.0186 0.597267,-0.70738 1.093407,-1.35792 1.470712,-1.93476 a 5.291666,5.2916655 0 0 0 -3.340893,-1.19216 z m -0.176733,3.92792 c -0.08451,0.001 -0.109008,0.005 -0.114205,0.0114 -0.0064,0.009 -0.05035,0.10436 -0.09664,0.21187 -0.106678,0.24754 -0.250694,0.55771 -0.316776,0.68213 -0.02809,0.0528 -0.05109,0.10452 -0.05116,0.11421 -7e-6,0.0164 0.0321,0.0174 0.278536,0.0108 0.245402,-0.006 0.495751,-0.0265 0.747241,-0.0579 0.30754,-0.3224 0.602848,-0.63884 0.8785,-0.94516 -0.274886,-0.008 -0.512441,-0.019 -0.853178,-0.0238 -0.243438,-0.003 -0.387787,-0.005 -0.472323,-0.003 l 0,-5.3e-4 z"
           style="fill:#f5404f;fill-opacity:1;stroke-width:1"
           inkscape:connector-curvature="0" />
        <path
           id="path4196"
           d="m 14.871962,285.36401 c -0.575994,0.35091 -1.155279,0.79556 -1.711523,1.29037 1.066358,0.0593 1.729768,0.14106 1.828312,0.23461 0.105182,0.0998 0.197866,0.42979 0.198955,0.71106 7.4e-4,0.18835 -0.0067,0.20294 -0.135393,0.28577 -0.948373,0.60994 -2.664982,1.1736 -3.839559,1.26039 -0.101074,0.007 -0.194583,0.018 -0.207222,0.0222 -0.01909,0.008 -0.008,0.0183 0.07493,0.0723 0.665982,0.43303 1.639834,0.82517 3.017387,1.2144 0.177696,0.0502 0.334523,0.0968 0.348299,0.10438 0.03823,0.0205 0.04966,0.0633 0.02997,0.11059 -0.03854,0.0921 -0.23433,0.23129 -0.410311,0.293 -0.12309,0.0433 -0.205501,0.0427 -0.411861,-0.002 -1.012342,-0.21845 -1.984925,-0.56866 -2.981213,-1.07383 -0.223386,-0.11327 -0.365802,-0.19404 -0.52555,-0.28216 -0.9007921,0.93478 -1.9254032,2.01995 -2.8949138,3.06907 a 5.291666,5.2916655 0 0 0 3.5956468,1.41541 5.291666,5.2916655 0 0 0 5.291666,-5.29167 5.291666,5.2916655 0 0 0 -1.267623,-3.4339 z m -2.586405,2.10582 c -0.213106,0.19039 -0.517689,0.48223 -0.937927,0.90485 0.59318,-0.0911 1.184281,-0.24729 1.717724,-0.45888 0.278234,-0.11038 0.67491,-0.32052 0.650607,-0.34469 -0.01967,-0.0195 -0.583154,-0.0675 -1.07332,-0.0915 -0.100005,-0.005 -0.249384,-0.006 -0.357084,-0.01 z"
           style="fill:#f5404f;fill-opacity:1;stroke-width:1"
           inkscape:connector-curvature="0" />
      </g>
      <path
         id="path4198"
         d="m -12.7,282.18333 a 6.3499999,6.3500004 0 0 0 -6.349999,6.35 6.3499999,6.3500004 0 0 0 6.349999,6.35 6.3499999,6.3500004 0 0 0 6.3500002,-6.35 6.3499999,6.3500004 0 0 0 -6.3500002,-6.35 z m 0.09457,3.71347 c 0.690947,-6e-5 1.383568,0.005 1.687235,0.0165 1.8850286,0.0703 3.0404851,0.18971 3.1874031,0.32918 0.126177,0.11979 0.236928,0.51566 0.238228,0.85318 8.87e-4,0.22601 -0.0078,0.24373 -0.162264,0.34313 -1.1380534,0.73192 -3.1979861,1.40841 -4.6074711,1.51257 -0.121332,0.009 -0.233394,0.0219 -0.248563,0.0269 -0.02333,0.009 -0.0092,0.0219 0.08992,0.0863 0.799179,0.51964 1.967898,0.99019 3.6209667,1.45728 0.213232,0.0602 0.4010264,0.11657 0.4175464,0.12557 0.04586,0.0245 0.05983,0.0756 0.03617,0.13229 -0.0462,0.11062 -0.2808454,0.27832 -0.4924764,0.35192 -0.1477031,0.052 -0.2464041,0.0513 -0.4940271,-0.002 -1.2148156,-0.26214 -2.3820176,-0.68259 -3.5775596,-1.28881 -0.399076,-0.20235 -0.51792,-0.2662 -0.938961,-0.50436 -0.15976,-0.0903 -0.29624,-0.16437 -0.30334,-0.16433 -0.0071,5e-5 -0.0868,0.12242 -0.177767,0.27182 -0.201809,0.33141 -0.47198,0.74956 -0.604098,0.93534 -0.192511,0.27075 -0.296654,0.35113 -0.454752,0.3514 -0.07394,1.2e-4 -0.0988,-0.009 -0.331246,-0.12919 -0.138077,-0.0713 -0.252961,-0.1395 -0.255281,-0.1509 -0.0023,-0.0114 0.110778,-0.21981 0.251147,-0.46302 0.27632,-0.47875 0.580617,-1.0237 0.662492,-1.18649 0.05984,-0.119 0.06028,-0.11825 -0.07493,-0.17415 -0.107845,-0.0447 -0.132273,-0.0644 -0.152446,-0.12557 -0.04898,-0.1485 0.151208,-0.49474 0.314193,-0.54364 0.04957,-0.0149 0.07241,-0.0136 0.1757,0.0124 0.06538,0.0166 0.125652,0.0257 0.133842,0.0207 0.01953,-0.0121 0.140606,-0.27063 0.22841,-0.48782 0.09229,-0.22829 0.172449,-0.47499 0.174149,-0.53589 l 0.0015,-0.0491 -0.186035,0.003 c -0.679535,0.0115 -2.004343,0.0786 -3.156396,0.1602 -0.154869,0.011 -0.287743,0.0159 -0.295073,0.0119 -0.02034,-0.0126 -4.75e-4,-0.22997 0.03256,-0.35605 0.05904,-0.22536 0.197952,-0.46381 0.299724,-0.51521 0.243861,-0.12309 1.475234,-0.23869 3.284553,-0.30799 0.29673,-0.0114 0.985953,-0.017 1.676901,-0.0171 z m -0.306442,0.99993 c -0.10144,0.001 -0.131199,0.006 -0.137459,0.014 -0.0081,0.0107 -0.06019,0.12527 -0.115755,0.25424 -0.127994,0.29706 -0.301039,0.66926 -0.380339,0.81856 -0.0337,0.0634 -0.0615,0.12524 -0.0615,0.13694 0,0.0197 0.03863,0.0209 0.334347,0.0129 1.078052,-0.0275 2.239207,-0.264 3.233395,-0.65836 0.3338857,-0.13245 0.8099996,-0.38492 0.7808296,-0.41392 -0.02362,-0.0234 -0.6995769,-0.0808 -1.2877756,-0.10956 -0.503821,-0.0246 -1.080914,-0.0406 -1.799374,-0.0506 -0.292129,-0.004 -0.464933,-0.006 -0.566374,-0.004 z"
         style="opacity:1;fill:#e1011a;fill-opacity:1;stroke:none;stroke-width:1.05833352;stroke-linecap:round;stroke-linejoin:round;stroke-miterlimit:4;stroke-dasharray:none;stroke-dashoffset:0;stroke-opacity:1"
         inkscape:connector-curvature="0" />
      <path
         style="fill:#000000;stroke-width:1"
         d="m 12.321961,254.76765 c 1.286042,0.45829 1.928211,1.58542 1.627959,2.85732 -0.406846,1.72343 -3.425156,5.25084 -7.8631971,9.18949 -2.413001,2.14148 -4.7925684,4.32501 -7.5201836,6.90225 l -3.627361,-3.62734 c 2.0921058,-2.19334 3.7774037,-4 4.85336872,-5.21598 2.25332858,-2.54655 6.42756588,-6.92848 7.12475788,-7.47077 1.743847,-1.73223 3.8519781,-3.13018 5.4046271,-2.63494 z"
         id="path4200"
         inkscape:connector-curvature="0"
         sodipodi:nodetypes="csscccccc" />
      <path
         sodipodi:nodetypes="csscccccc"
         inkscape:connector-curvature="0"
         id="path4202"
         d="m 16.819875,259.26557 c 1.286041,0.45829 1.92821,1.58542 1.627958,2.85732 -0.406845,1.72343 -3.425157,5.25084 -7.863196,9.18949 -2.4129991,2.14148 -4.7925671,4.32501 -7.5201811,6.90225 l -3.62736092,-3.62733 c 2.09210582,-2.19335 3.77740392,-4.00001 4.85336792,-5.21599 2.253328,-2.54655 6.4275641,-6.92848 7.1247551,-7.47077 1.743847,-1.73223 3.851977,-3.13018 5.404628,-2.63494 z"
         style="fill:#000000;stroke-width:1" />
      <path
         inkscape:connector-curvature="0"
         id="path4204"
         d="m 9.7895837,258.10626 a 5.2916658,5.2916654 0 0 0 -5.2916673,5.29166 5.2916658,5.2916654 0 0 0 5.2916703,5.29167 5.2916658,5.2916654 0 0 0 5.2916663,-5.29166 5.2916658,5.2916654 0 0 0 -5.2916693,-5.29167 z m 0.07881,3.09456 c 0.5757873,-5e-5 1.1529723,0.004 1.4060313,0.0138 1.570849,0.0586 2.53373,0.15808 2.656157,0.2743 0.105182,0.0998 0.197444,0.42972 0.198533,0.71099 7.39e-4,0.18835 -0.0065,0.20311 -0.135225,0.28594 -0.948373,0.60994 -2.664982,1.17368 -3.839559,1.26047 -0.101074,0.007 -0.1944953,0.0182 -0.2071343,0.0224 -0.01909,0.008 -0.008,0.0179 0.07498,0.0719 0.665982,0.43303 1.639917,0.82516 3.01747,1.21439 0.177696,0.0502 0.334182,0.0971 0.347958,0.10465 0.03823,0.0205 0.04985,0.063 0.03016,0.11027 -0.03854,0.0921 -0.234398,0.23157 -0.410379,0.29328 -0.12309,0.0433 -0.205331,0.0428 -0.411692,-0.002 -1.012342,-0.21845 -1.985008,-0.56883 -2.9812989,-1.07401 -0.3325683,-0.16863 -0.4316016,-0.22184 -0.7824709,-0.4203 -0.133132,-0.0753 -0.2468682,-0.13698 -0.2527775,-0.13694 -0.00579,1.3e-4 -0.072323,0.10202 -0.1481534,0.2265 -0.1682222,0.27613 -0.3933075,0.62464 -0.5034133,0.77945 -0.160428,0.22563 -0.2472118,0.29261 -0.3789597,0.29284 -0.061616,9e-5 -0.082355,-0.008 -0.2760417,-0.10767 -0.1150653,-0.0594 -0.2108034,-0.11624 -0.2127331,-0.12574 -0.00186,-0.009 0.092278,-0.18321 0.2092877,-0.38585 0.2302687,-0.39896 0.4838543,-0.85308 0.5520761,-0.98875 0.04991,-0.0991 0.050203,-0.0986 -0.062441,-0.14512 -0.089879,-0.0373 -0.1102309,-0.0537 -0.1270416,-0.10465 -0.040813,-0.12374 0.1260106,-0.41227 0.2618274,-0.45303 0.041288,-0.0124 0.060373,-0.0113 0.1464206,0.0103 0.054476,0.0138 0.1047367,0.0214 0.1114966,0.0172 0.016002,-0.0103 0.1171867,-0.22551 0.1903432,-0.40652 0.076865,-0.19028 0.1437082,-0.39582 0.1451281,-0.44657 l 0.0013,-0.0409 -0.1550268,0.003 c -0.5662794,0.01 -1.6702877,0.0655 -2.6303386,0.13349 -0.1290619,0.009 -0.2397832,0.0132 -0.2458871,0.01 -0.016949,-0.0105 -4.022e-4,-0.19165 0.027131,-0.29671 0.049204,-0.18779 0.1649534,-0.38651 0.2497688,-0.42934 0.2032424,-0.10255 1.2293619,-0.19891 2.7371236,-0.25666 0.2472727,-0.009 0.8216273,-0.0142 1.3974219,-0.0142 z m -0.2553733,0.83327 c -0.08451,0.001 -0.109298,0.005 -0.114495,0.0117 -0.0064,0.009 -0.05019,0.10435 -0.09647,0.21186 -0.106678,0.24754 -0.2508613,0.55772 -0.3169433,0.68214 -0.02809,0.0528 -0.05122,0.10439 -0.05129,0.11408 -7e-6,0.0164 0.03219,0.0174 0.2786243,0.0108 0.8983756,-0.0229 1.8660046,-0.22 2.6944996,-0.54862 0.278233,-0.11038 0.674995,-0.32078 0.650692,-0.34494 -0.01967,-0.0195 -0.582985,-0.0673 -1.073151,-0.0913 -0.419854,-0.0205 -0.900765,-0.0339 -1.499482,-0.0422 -0.2434373,-0.003 -0.3874396,-0.005 -0.4719756,-0.003 z"
         style="opacity:1;fill:#e1011a;fill-opacity:1;stroke:none;stroke-width:1.05833352;stroke-linecap:round;stroke-linejoin:round;stroke-miterlimit:4;stroke-dasharray:none;stroke-dashoffset:0;stroke-opacity:1" />
    </g>
  </g>
</svg>
