<?xml version="1.0" encoding="UTF-8" standalone="no"?>
<!-- Svg Vector Icons : http://www.onlinewebfonts.com/icon -->

<svg
   xmlns:dc="http://purl.org/dc/elements/1.1/"
   xmlns:cc="http://creativecommons.org/ns#"
   xmlns:rdf="http://www.w3.org/1999/02/22-rdf-syntax-ns#"
   xmlns:svg="http://www.w3.org/2000/svg"
   xmlns="http://www.w3.org/2000/svg"
   xmlns:sodipodi="http://sodipodi.sourceforge.net/DTD/sodipodi-0.dtd"
   xmlns:inkscape="http://www.inkscape.org/namespaces/inkscape"
   version="1.1"
   x="0px"
   y="0px"
   viewBox="0 0 64 64"
   enable-background="new 0 0 1000 1000"
   xml:space="preserve"
   id="svg4141"
   inkscape:version="0.91+devel+osxmenu r12911"
   sodipodi:docname="cog.svg"
   width="64"
   height="64"><defs
     id="defs4153" /><sodipodi:namedview
     pagecolor="#ffffff"
     bordercolor="#666666"
     borderopacity="1"
     objecttolerance="10"
     gridtolerance="10"
     guidetolerance="10"
     inkscape:pageopacity="0"
     inkscape:pageshadow="2"
     inkscape:window-width="640"
     inkscape:window-height="480"
     id="namedview4151"
     showgrid="false"
     inkscape:snap-bbox="true"
     inkscape:bbox-paths="true"
     inkscape:bbox-nodes="true"
     inkscape:snap-bbox-edge-midpoints="true"
     inkscape:snap-bbox-midpoints="true"
     inkscape:zoom="2.7289902"
     inkscape:cx="32"
     inkscape:cy="69.725032"
     inkscape:current-layer="g4145"><inkscape:grid
       type="xygrid"
       id="grid4155" /></sodipodi:namedview><metadata
     id="metadata4143"> Svg Vector Icons : http://www.onlinewebfonts.com/icon <rdf:RDF><cc:Work
     rdf:about=""><dc:format>image/svg+xml</dc:format><dc:type
       rdf:resource="http://purl.org/dc/dcmitype/StillImage" /><dc:title /></cc:Work></rdf:RDF></metadata><g
     id="g4145"
     transform="translate(0,-936)"><path
       style="opacity:1;fill:#ffffff;fill-opacity:1;stroke:none;stroke-width:4;stroke-linecap:round;stroke-linejoin:round;stroke-miterlimit:4;stroke-dasharray:none;stroke-dashoffset:0;stroke-opacity:1"
       d="m 64,968 c 0,-1.26744 -7.991003,-1.09022 -8.115234,-2.35156 -0.124232,-1.26134 7.747266,-2.64754 7.5,-3.89063 -0.247267,-1.24309 -8.050049,0.48826 -8.417969,-0.72461 -0.36792,-1.21287 7.082686,-4.10833 6.597656,-5.27929 -0.48503,-1.17097 -7.800968,2.04942 -8.398437,0.93164 -0.59747,-1.11779 6.14556,-5.40905 5.441406,-6.46289 -0.704155,-1.05385 -7.250629,3.53248 -8.054688,2.55273 -0.804058,-0.97975 4.970438,-6.50612 4.074219,-7.40234 -0.896219,-0.89622 -6.422596,4.87827 -7.402344,4.07422 -0.979748,-0.80406 3.606576,-7.35054 2.552735,-8.05469 -1.053842,-0.70416 -5.345105,6.03887 -6.462891,5.4414 -1.117786,-0.59746 2.102607,-7.9134 0.931641,-8.39843 -1.170966,-0.48503 -4.066428,6.96557 -5.279297,6.59765 -1.212869,-0.36792 0.518481,-8.1707 -0.724609,-8.41797 -1.243092,-0.24726 -2.629284,7.62424 -3.890626,7.5 C 33.090221,943.991 33.267445,936 32,936 c -1.267445,0 -1.090221,7.991 -2.351562,8.11523 -1.261342,0.12424 -2.647534,-7.74726 -3.890626,-7.5 -1.24309,0.24727 0.48826,8.05005 -0.724609,8.41797 -1.212869,0.36792 -4.108331,-7.08268 -5.279297,-6.59765 -1.170966,0.48503 2.049427,7.80097 0.931641,8.39843 -1.117786,0.59747 -5.409049,-6.14556 -6.462891,-5.4414 -1.053841,0.70415 3.532483,7.25063 2.552735,8.05469 -0.979748,0.80405 -6.506125,-4.97044 -7.402344,-4.07422 -0.896219,0.89622 4.878277,6.42259 4.074219,7.40234 -0.804059,0.97975 -7.350533,-3.60658 -8.054688,-2.55273 -0.704154,1.05384 6.038876,5.3451 5.441406,6.46289 -0.597469,1.11778 -7.913407,-2.10261 -8.398437,-0.93164 -0.48503,1.17096 6.965576,4.06642 6.597656,5.27929 -0.36792,1.21287 -8.170702,-0.51848 -8.417969,0.72461 -0.247266,1.24309 7.624232,2.62929 7.5,3.89063 C 7.991003,966.90978 0,966.73256 0,968 c 0,1.26744 7.991003,1.09022 8.115234,2.35156 0.124232,1.26134 -7.747266,2.64754 -7.5,3.89063 0.247267,1.24309 8.050049,-0.48826 8.417969,0.72461 0.36792,1.21287 -7.082686,4.10833 -6.597656,5.27929 0.48503,1.17097 7.800968,-2.04942 8.398437,-0.93164 0.59747,1.11779 -6.14556,5.40905 -5.441406,6.46289 0.704155,1.05384 7.250629,-3.53248 8.054688,-2.55273 0.804058,0.97975 -4.970438,6.50612 -4.074219,7.40234 0.896219,0.89622 6.422596,-4.87827 7.402344,-4.07422 0.979748,0.80406 -3.606576,7.35054 -2.552735,8.05469 1.053842,0.70416 5.345105,-6.03887 6.462891,-5.4414 1.117786,0.59746 -2.102607,7.9134 -0.931641,8.39843 1.170966,0.48503 4.066428,-6.96557 5.279297,-6.59765 1.212869,0.36792 -0.518481,8.1707 0.724609,8.41797 1.243092,0.24726 2.629284,-7.62424 3.890626,-7.5 C 30.909779,992.009 30.732555,1000 32,1000 c 1.267445,0 1.090221,-7.991 2.351562,-8.11523 1.261342,-0.12424 2.647534,7.74726 3.890626,7.5 1.24309,-0.24727 -0.48826,-8.05005 0.724609,-8.41797 1.212869,-0.36792 4.108331,7.08268 5.279297,6.59765 1.170966,-0.48503 -2.049427,-7.80097 -0.931641,-8.39843 1.117786,-0.59747 5.409049,6.14556 6.462891,5.4414 1.053841,-0.70415 -3.532483,-7.25063 -2.552735,-8.05469 0.979748,-0.80405 6.506125,4.97044 7.402344,4.07422 0.896219,-0.89622 -4.878277,-6.42259 -4.074219,-7.40234 0.804059,-0.97975 7.350533,3.60657 8.054688,2.55273 0.704154,-1.05384 -6.038876,-5.3451 -5.441406,-6.46289 0.597469,-1.11778 7.913407,2.10261 8.398437,0.93164 0.48503,-1.17096 -6.965576,-4.06642 -6.597656,-5.27929 0.36792,-1.21287 8.170702,0.51848 8.417969,-0.72461 0.247266,-1.24309 -7.624232,-2.62929 -7.5,-3.89063 C 56.008997,969.09022 64,969.26744 64,968 Z m -10.035156,-1 -18.097656,0 A 4,4 0 0 0 32,964 4,4 0 0 0 30.929688,964.15039 L 21.880859,948.47266 A 22,22 0 0 1 32,946 22,22 0 0 1 53.964844,967 Z m -0.01367,2 A 22,22 0 0 1 32,990 22,22 0 0 1 21.886719,987.51562 l 9.041015,-15.6621 A 4,4 0 0 0 32,972 a 4,4 0 0 0 3.869141,-3 l 18.082031,0 z M 34,968 a 2,2 0 0 1 -0.0098,0.19922 2,2 0 0 1 -0.08008,0.39258 2,2 0 0 1 -0.06836,0.1875 2,2 0 0 1 -0.111328,0.21875 2,2 0 0 1 0,0.002 A 2,2 0 0 1 32,970 a 2,2 0 0 1 -0.002,0 2,2 0 0 1 -0.197266,-0.01 2,2 0 0 1 -0.002,0 2,2 0 0 1 -0.0293,-0.004 2,2 0 0 1 -0.3125,-0.0645 2,2 0 0 1 -0.04883,-0.0117 2,2 0 0 1 -0.002,0 2,2 0 0 1 -0.185547,-0.0684 2,2 0 0 1 -0.002,-0.002 2,2 0 0 1 -0.177734,-0.084 2,2 0 0 1 -0.002,-0.002 2,2 0 0 1 -0.167968,-0.10352 2,2 0 0 1 -0.002,-0.002 2,2 0 0 1 -0.304688,-0.25782 2,2 0 0 1 -0.294922,-0.39257 A 2,2 0 0 1 30,968 a 2,2 0 0 1 0.269531,-0.99805 2,2 0 0 1 0.103516,-0.16211 2,2 0 0 1 0.01758,-0.0215 2,2 0 0 1 0.111328,-0.14063 2,2 0 0 1 0.140625,-0.14257 2,2 0 0 1 0.152344,-0.12891 2,2 0 0 1 0.166016,-0.11328 2,2 0 0 1 0.169921,-0.0918 2,2 0 0 1 0.04492,-0.0195 2,2 0 0 1 0.117188,-0.0508 2,2 0 0 1 0.09375,-0.0332 2,2 0 0 1 0.109375,-0.0312 2,2 0 0 1 0.08594,-0.0195 2,2 0 0 1 0.09766,-0.0195 2,2 0 0 1 0.144531,-0.0176 2,2 0 0 1 0.04687,-0.004 2,2 0 0 1 0.126953,-0.006 2,2 0 0 1 0.002,0 2,2 0 0 1 1.728516,1 2,2 0 0 1 0.0918,0.17578 2,2 0 0 1 0,0.004 2,2 0 0 1 0.06445,0.16015 2,2 0 0 1 0.01563,0.0469 2,2 0 0 1 0.04297,0.14844 2,2 0 0 1 0.01172,0.0547 2,2 0 0 1 0.02148,0.11524 2,2 0 0 1 0.01367,0.11914 2,2 0 0 1 0.0059,0.0723 A 2,2 0 0 1 34,968 Z m -4.800781,-2.85156 A 4,4 0 0 0 28,968 a 4,4 0 0 0 1.199219,2.85352 l -9.041016,15.66015 A 22,22 0 0 1 10,968 22,22 0 0 1 20.146484,949.46875 l 9.052735,15.67969 z"
       id="path4211"
       inkscape:connector-curvature="0" /></g></svg>