<?xml version="1.0" encoding="UTF-8" standalone="no"?>
<!-- Svg Vector Icons : http://www.onlinewebfonts.com/icon -->

<svg
   xmlns:dc="http://purl.org/dc/elements/1.1/"
   xmlns:cc="http://creativecommons.org/ns#"
   xmlns:rdf="http://www.w3.org/1999/02/22-rdf-syntax-ns#"
   xmlns:svg="http://www.w3.org/2000/svg"
   xmlns="http://www.w3.org/2000/svg"
   xmlns:sodipodi="http://sodipodi.sourceforge.net/DTD/sodipodi-0.dtd"
   xmlns:inkscape="http://www.inkscape.org/namespaces/inkscape"
   version="1.1"
   x="0px"
   y="0px"
   viewBox="0 0 64 64"
   enable-background="new 0 0 1000 1000"
   xml:space="preserve"
   id="svg4141"
   inkscape:version="0.91+devel+osxmenu r12911"
   sodipodi:docname="sepia.svg"
   width="64"
   height="64"><defs
     id="defs4153" /><sodipodi:namedview
     pagecolor="#ffffff"
     bordercolor="#666666"
     borderopacity="1"
     objecttolerance="10"
     gridtolerance="10"
     guidetolerance="10"
     inkscape:pageopacity="0"
     inkscape:pageshadow="2"
     inkscape:window-width="640"
     inkscape:window-height="480"
     id="namedview4151"
     showgrid="true"
     inkscape:snap-bbox="true"
     inkscape:bbox-paths="true"
     inkscape:bbox-nodes="true"
     inkscape:snap-bbox-edge-midpoints="true"
     inkscape:snap-bbox-midpoints="true"
     inkscape:zoom="4.5390625"
     inkscape:cx="45.218589"
     inkscape:cy="32"
     inkscape:current-layer="g4145"><inkscape:grid
       type="xygrid"
       id="grid4155" /></sodipodi:namedview><metadata
     id="metadata4143"> Svg Vector Icons : http://www.onlinewebfonts.com/icon <rdf:RDF><cc:Work
     rdf:about=""><dc:format>image/svg+xml</dc:format><dc:type
       rdf:resource="http://purl.org/dc/dcmitype/StillImage" /><dc:title /></cc:Work></rdf:RDF></metadata><g
     id="g4145"
     transform="translate(0,-936)"><path
       style="color:#000000;font-style:normal;font-variant:normal;font-weight:normal;font-stretch:normal;font-size:medium;line-height:normal;font-family:sans-serif;text-indent:0;text-align:start;text-decoration:none;text-decoration-line:none;text-decoration-style:solid;text-decoration-color:#000000;letter-spacing:normal;word-spacing:normal;text-transform:none;direction:ltr;block-progression:tb;writing-mode:lr-tb;baseline-shift:baseline;text-anchor:start;white-space:normal;shape-padding:0;clip-rule:nonzero;display:inline;overflow:visible;visibility:visible;opacity:1;isolation:auto;mix-blend-mode:normal;color-interpolation:sRGB;color-interpolation-filters:linearRGB;solid-color:#000000;solid-opacity:1;fill:#ffffff;fill-opacity:1;fill-rule:nonzero;stroke:none;stroke-width:2;stroke-linecap:round;stroke-linejoin:round;stroke-miterlimit:4;stroke-dasharray:none;stroke-dashoffset:0;stroke-opacity:1;color-rendering:auto;image-rendering:auto;shape-rendering:auto;text-rendering:auto;enable-background:accumulate"
       d="M 32 0 C 14.338733 0 0 14.33873 0 32 C 0 49.66127 14.338733 64 32 64 C 49.661267 64 64 49.66127 64 32 C 64 14.33873 49.661267 0 32 0 z M 32 2 C 40.398097 2 47.980608 5.4474719 53.423828 11 L 33 11 A 1.0001 1.0001 0 1 0 33 13 L 55.220703 13 C 56.721075 14.832124 58.011455 16.843252 59.048828 19 L 33 19 A 1.0001 1.0001 0 1 0 33 21 L 59.914062 21 C 60.667337 22.912094 61.229435 24.918663 61.578125 27 L 33 27 A 1.0001 1.0001 0 1 0 33 29 L 61.851562 29 C 61.949408 29.98707 62 30.986993 62 32 C 62 33.013007 61.949408 34.01293 61.851562 35 L 33 35 A 1.0001 1.0001 0 1 0 33 37 L 61.578125 37 C 61.229435 39.081337 60.667337 41.087906 59.914062 43 L 33 43 A 1.0001 1.0001 0 1 0 33 45 L 59.048828 45 C 58.011455 47.156748 56.721075 49.167876 55.220703 51 L 33 51 A 1.0001 1.0001 0 1 0 33 53 L 53.423828 53 C 47.980608 58.552528 40.398097 62 32 62 C 25.862831 62 20.160963 60.156938 15.410156 57 L 31 57 A 1.0001 1.0001 0 1 0 31 55 L 12.736328 55 C 10.65724 53.257315 8.8196528 51.23999 7.2773438 49 L 31 49 A 1.0001 1.0001 0 1 0 31 47 L 6.0175781 47 C 4.9297136 45.118404 4.035408 43.111907 3.3730469 41 L 31 41 A 1.0001 1.0001 0 1 0 31 39 L 2.828125 39 C 2.3664239 37.065995 2.0928506 35.059796 2.0253906 33 L 31 33 A 1.0001 1.0001 0 1 0 31 31 L 2.0253906 31 C 2.0928506 28.940204 2.3664239 26.934005 2.828125 25 L 31 25 A 1.0001 1.0001 0 1 0 31 23 L 3.3730469 23 C 4.035408 20.888093 4.9297136 18.881596 6.0175781 17 L 31 17 A 1.0001 1.0001 0 1 0 31 15 L 7.2773438 15 C 8.8196528 12.76001 10.65724 10.742685 12.736328 9 L 31 9 A 1.0001 1.0001 0 1 0 31 7 L 15.410156 7 C 20.160963 3.8430615 25.862831 2 32 2 z "
       transform="translate(0,936)"
       id="circle4210" /></g></svg>