<?xml version="1.0" encoding="UTF-8" standalone="no"?>
<!-- Created with Inkscape (http://www.inkscape.org/) -->

<svg
   xmlns:dc="http://purl.org/dc/elements/1.1/"
   xmlns:cc="http://creativecommons.org/ns#"
   xmlns:rdf="http://www.w3.org/1999/02/22-rdf-syntax-ns#"
   xmlns:svg="http://www.w3.org/2000/svg"
   xmlns="http://www.w3.org/2000/svg"
   xmlns:sodipodi="http://sodipodi.sourceforge.net/DTD/sodipodi-0.dtd"
   xmlns:inkscape="http://www.inkscape.org/namespaces/inkscape"
   width="64"
   height="64"
   viewBox="0 0 16.933333 16.933334"
   id="svg2"
   version="1.1"
   inkscape:version="0.91+devel+osxmenu r12911"
   sodipodi:docname="teddy.svg">
  <defs
     id="defs4" />
  <sodipodi:namedview
     id="base"
     pagecolor="#ffffff"
     bordercolor="#666666"
     borderopacity="1.0"
     inkscape:pageopacity="0.0"
     inkscape:pageshadow="2"
     inkscape:zoom="9.171875"
     inkscape:cx="32"
     inkscape:cy="32"
     inkscape:document-units="px"
     inkscape:current-layer="g4152"
     showgrid="false"
     units="px" />
  <metadata
     id="metadata7">
    <rdf:RDF>
      <cc:Work
         rdf:about="">
        <dc:format>image/svg+xml</dc:format>
        <dc:type
           rdf:resource="http://purl.org/dc/dcmitype/StillImage" />
        <dc:title></dc:title>
      </cc:Work>
    </rdf:RDF>
  </metadata>
  <g
     inkscape:label="Laag 1"
     inkscape:groupmode="layer"
     id="layer1"
     transform="translate(0,-280.06665)">
    <g
       id="g4152"
       transform="matrix(0.26632783,0,0,0.26582691,-46.026595,241.28194)"
       style="stroke-width:3.75830722">
      <path
         style="fill:#c38f79;stroke-width:3.75830722"
         d="m 201.71327,209.16565 c -1.37032,-0.60732 -2.78602,-1.9495 -3.48789,-3.30677 l -0.55754,-1.07816 -6.29456,-0.11684 c -6.03636,-0.11206 -6.34794,-0.15303 -7.59572,-0.99879 -2.45673,-1.66523 -3.58629,-5.79355 -2.723,-9.952 0.80601,-3.88254 2.64168,-5.47606 6.7001,-5.8163 l 2.49333,-0.20904 0,-1.59639 c 0,-1.04693 0.38441,-2.43038 1.11685,-4.01943 l 1.11685,-2.42304 -1.1054,-0.95649 c -2.67477,-2.31441 -5.1556,-7.69342 -4.35683,-9.44654 0.20566,-0.45137 0.91447,-1.42451 1.57514,-2.16253 1.24599,-1.39189 2.20422,-3.66829 1.88944,-4.4886 -0.0996,-0.2595 -0.0488,-1.05809 0.11278,-1.77464 0.26628,-1.18065 0.19432,-1.39143 -0.76738,-2.24767 -1.25077,-1.1136 -1.70687,-1.8945 -2.09232,-3.58237 -0.54368,-2.38071 0.92633,-5.35043 3.24093,-6.54736 1.47368,-0.76207 4.04862,-0.65168 5.63818,0.2417 1.33897,0.75254 1.36563,0.75343 3.57581,0.11937 1.22473,-0.35135 3.49679,-0.66235 5.04901,-0.69112 2.41994,-0.0448 3.01246,-0.18395 4.15685,-0.97586 0.73405,-0.50796 1.79233,-1.02409 2.35173,-1.14696 1.68329,-0.3697 3.93948,0.45651 5.38123,1.9706 1.44964,1.52238 1.92706,3.16407 1.50898,5.18896 -0.45555,2.20642 -0.31618,3.33214 0.70717,5.71198 1.80433,4.19603 1.56883,10.04408 -0.55135,13.69125 -0.37302,0.64168 -0.67822,1.36312 -0.67822,1.6032 0,0.24008 0.75406,1.01187 1.67569,1.71509 2.61324,1.99393 6.95957,6.63831 7.8529,8.39141 1.63194,3.20257 0.80676,5.82626 -2.65426,8.43935 -1.06449,0.80371 -1.93544,1.67588 -1.93544,1.93817 0,0.26229 -0.66437,1.80426 -1.47639,3.42662 -1.90374,3.80356 -5.7101,7.70625 -9.1538,9.38545 -4.07025,1.98471 -8.50187,2.69364 -10.71287,1.71375 z m -7.23194,-48.18668 c 0,-0.19403 -0.15875,-0.35278 -0.35278,-0.35278 -0.19403,0 -0.35278,0.15875 -0.35278,0.35278 0,0.19403 0.15875,0.35278 0.35278,0.35278 0.19403,0 0.35278,-0.15875 0.35278,-0.35278 z"
         id="path4164"
         inkscape:connector-curvature="0"
         sodipodi:nodetypes="sscsssscsscsssccssssscscsssssssssssssssss" />
      <path
         style="fill:#b27860;fill-opacity:1;stroke-width:3.75830722"
         d="m 202.48408,208.9508 c -1.46488,-0.43969 -3.16968,-1.85844 -3.9303,-3.27084 l -0.66941,-1.243 -6.19943,-0.12135 c -5.82717,-0.11407 -6.28158,-0.17242 -7.56718,-0.97158 -1.89784,-1.17975 -2.76095,-3.2398 -2.74793,-6.55869 0.0119,-3.02075 0.48684,-5.01962 1.49838,-6.3056 1.09209,-1.38836 1.9941,-1.74931 4.91034,-1.96489 l 2.64583,-0.1956 0.23895,-2.166 c 0.21791,-1.97529 1.59711,-5.44742 2.3482,-5.91162 0.16914,-0.10453 0.59998,0.0238 0.95743,0.28517 0.63052,0.46104 0.62944,0.54225 -0.0362,2.72272 -0.4938,1.61754 -0.68613,3.28812 -0.68613,5.96003 0,3.47369 0.0731,3.8595 1.13641,5.99722 0.62503,1.25659 1.52508,2.76095 2.00012,3.34304 l 0.86371,1.05833 0.43741,-1.05833 c 0.24058,-0.58209 0.55764,-3.36021 0.70456,-6.17361 0.23931,-4.58249 0.56464,-7.06479 1.23282,-9.40661 0.1564,-0.54814 0.0174,-0.87082 -0.49269,-1.14381 -0.39081,-0.20916 -0.89669,-0.94428 -1.12419,-1.63361 -0.31922,-0.96725 -0.73139,-1.38048 -1.80569,-1.81033 -1.42437,-0.56992 -2.42329,-1.91961 -2.42329,-3.27424 0,-1.10927 0.65153,-0.8603 1.29838,0.49614 0.65473,1.37299 1.29936,1.76939 1.83258,1.12691 0.1987,-0.23942 0.38587,-2.55046 0.41728,-5.15236 l 0.057,-4.7182 -0.92066,-0.48238 c -0.97832,-0.5126 -1.1959,-1.4546 -0.49733,-2.15318 0.56249,-0.56249 -0.58928,-0.57474 -2.17169,-0.0231 -1.06289,0.37053 -1.21078,0.32472 -1.99301,-0.61736 -0.71837,-0.86518 -0.81384,-1.26626 -0.63745,-2.67793 0.19832,-1.58707 0.14524,-1.71954 -1.2027,-3.00181 -2.21634,-2.10836 -2.42798,-5.26252 -0.50633,-7.54627 1.84369,-2.1911 4.28023,-2.60918 6.94592,-1.19181 l 1.66872,0.88726 2.30154,-0.71088 c 1.43586,-0.44349 3.29161,-0.71087 4.93376,-0.71087 2.3041,0 2.78504,-0.11657 3.85827,-0.93516 1.45168,-1.10725 4.16844,-1.49726 5.77996,-0.82975 1.49721,0.62017 3.09804,2.5703 3.39076,4.13064 0.1675,0.89286 0.0585,1.85642 -0.33563,2.96602 -0.58324,1.64214 -0.58281,1.64548 0.50803,3.97655 2.21879,4.74145 2.19803,9.67318 -0.06,14.25995 l -1.13082,2.29703 1.01993,0.71795 c 2.13763,1.5047 8.28643,7.83759 8.95928,9.2275 1.47603,3.04907 0.37313,6.1878 -2.81319,8.00603 -0.98674,0.56307 -1.54158,1.18565 -1.82191,2.04435 -1.06151,3.25162 -2.93794,6.24124 -5.55663,8.85311 -3.03132,3.02343 -5.66567,4.47254 -9.8117,5.39725 -2.79513,0.62342 -3.34014,0.64697 -4.80399,0.20758 z m 19.12677,-15.72007 c 1.7203,-0.68833 1.99468,-1.33403 1.16923,-2.75161 -0.92534,-1.58911 -1.97972,-1.60297 -3.44874,-0.0453 -2.40708,2.55225 -1.10422,4.15086 2.27951,2.79696 z m -13.07504,-27.50586 c 0.54936,-1.2057 0.51585,-1.76683 -0.14496,-2.42764 -1.22514,-1.22514 -3.67897,-0.2081 -3.67897,1.52482 0,1.77664 3.09306,2.5069 3.82393,0.90282 z m -13.70171,-4.7459 c 0,-0.38805 -0.22875,-0.70555 -0.50834,-0.70555 -0.62321,0 -1.02167,0.58054 -0.72638,1.05833 0.38364,0.62075 1.23472,0.37758 1.23472,-0.35278 z m 9.52501,-0.3697 c 0,-0.16182 -0.17259,-0.40087 -0.38352,-0.53124 -0.48982,-0.30273 -1.18041,0.36829 -0.87973,0.85479 0.2504,0.40516 1.26325,0.14573 1.26325,-0.32355 z m -12.02358,-5.02173 c 0.1684,-0.44292 0.87884,-1.55554 1.57876,-2.47249 1.50455,-1.97107 1.54605,-2.22151 0.41513,-2.50536 -2.02087,-0.5072 -4.28642,1.56107 -3.95397,3.60968 0.33471,2.06262 1.41054,2.81356 1.96008,1.36817 z"
         id="path4158"
         inkscape:connector-curvature="0"
         sodipodi:nodetypes="cscsscsscscssssscssscsssssscsssssssscssssscsscsssssscccscccsssssssssccssssss" />
      <path
         style="fill:#8e5234;stroke-width:3.75830722"
         d="m 201.61974,209.06929 c -1.07196,-0.48656 -2.12794,-1.03465 -2.79059,-2.37159 l -1.01562,-2.04908 -5.67085,-0.18021 c -6.40073,-0.20342 -8.15348,0.0748 -9.38447,-1.65396 -1.12462,-1.57938 -2.13855,-4.92953 -1.70163,-7.74558 0.74009,-4.76994 2.12252,-6.9034 6.6242,-7.10009 l 2.46562,-0.10773 0.14018,-2.14786 c 0.14547,-2.22904 1.62055,-5.29741 2.44889,-5.80935 0.60118,-0.22009 1.36864,0.63248 1.70367,1.24013 -0.91741,2.32567 -2.18267,10.17874 -1.41208,12.46695 0.67234,1.99644 3.56996,6.22706 4.17876,6.10111 0.2762,-0.0571 0.79559,-0.97701 1.15419,-2.04417 0.46753,-1.39131 1.10424,-2.35143 2.25041,-3.39347 2.83018,-2.57305 6.25455,-2.76823 9.05688,-0.51622 0.74427,0.59811 1.43782,1.08747 1.54123,1.08747 0.39488,0 1.20645,-2.01807 1.44126,-3.58391 0.20822,-1.38852 0.025,-2.26107 -1.21817,-5.80124 -0.80479,-2.29178 -1.62132,-4.35735 -1.81452,-4.59015 -0.25545,-0.30779 -0.0217,-0.53202 0.85688,-0.82198 2.13774,-0.70552 2.52872,-1.46568 2.52395,-4.90712 -0.005,-3.42056 -0.58918,-4.946 -2.85633,-7.45548 -1.03748,-1.14836 -1.18049,-1.49119 -0.86667,-2.07758 0.57793,-1.07987 0.45466,-1.76023 -0.49007,-2.70496 -1.13417,-1.13418 -2.54049,-1.1142 -3.75921,0.0534 -0.9541,0.91408 -0.97383,0.91677 -3.46084,0.47232 -1.3757,-0.24585 -2.593,-0.35528 -2.70511,-0.24317 -0.11211,0.11211 0.12329,0.53097 0.52312,0.93079 0.39982,0.39982 0.63845,0.95759 0.53028,1.23947 -0.31124,0.81108 -2.13498,1.30774 -3.13272,0.85314 -1.37223,-0.62523 -1.36155,-1.30215 0.0335,-2.12526 1.70564,-1.00636 0.83464,-1.55595 -1.28222,-0.80907 -2.11061,0.74466 -2.99635,0.66296 -3.65143,-0.33682 -0.41154,-0.62808 -0.50619,-1.29634 -0.34756,-2.45369 0.20193,-1.47325 0.13566,-1.65981 -0.89879,-2.53024 -2.30709,-1.94129 -2.77236,-4.84507 -1.14297,-7.13334 1.54325,-2.16729 5.20616,-2.70165 7.28895,-1.06333 0.57451,0.45191 1.19401,0.64056 1.68608,0.51346 0.42783,-0.11052 1.9615,-0.52567 3.40816,-0.92256 1.83943,-0.50464 3.12956,-0.65538 4.29082,-0.50133 1.44328,0.19146 1.82136,0.0976 2.88973,-0.71728 1.72112,-1.31276 3.24498,-1.68725 4.98638,-1.2254 3.36274,0.89185 4.94939,4.24684 3.56986,7.54852 -0.47656,1.14055 -0.44748,1.33308 0.49106,3.25187 2.30483,4.71206 2.37283,9.56287 0.19816,14.13647 l -1.29319,2.71974 1.17262,0.87493 c 2.19985,1.6414 7.43968,6.88252 8.45246,8.45455 1.66601,2.58597 1.13356,6.22876 -1.0839,7.4155 -0.65711,0.35168 -0.64316,0.27121 0.15752,-0.90865 0.48316,-0.71198 0.87848,-1.47874 0.87848,-1.7039 0,-0.64092 -0.7748,-1.25604 -1.58209,-1.25604 -1.31751,0 -4.92132,1.44599 -5.88881,2.36283 -2.28766,2.16789 -2.06198,4.33994 0.45095,4.33994 0.78203,0 1.72895,-0.16433 2.10425,-0.36518 1.0865,-0.58148 0.87432,0.77279 -0.60413,3.85595 -0.96024,2.00246 -0.7052,3.45398 -2.70722,5.45836 -3.00742,3.01094 -5.53919,4.8973 -9.48296,5.90594 -3.95368,0.7009 -5.09811,0.74999 -7.25435,0.0742 z m 5.18701,-2.90302 c 1.58024,-1.11057 2.26203,-2.38992 2.41142,-4.52492 0.11905,-1.70138 0.006,-2.23388 -0.6933,-3.26279 -1.07589,-1.58326 -2.25318,-2.18787 -3.88466,-1.99502 -2.73663,0.32348 -4.51444,2.60101 -4.51444,5.78339 0,3.94534 3.64938,6.12992 6.68098,3.99934 z m -11.97637,-44.65364 c 0.53514,-0.64481 0.22252,-1.59199 -0.52544,-1.59199 -0.64731,0 -1.04357,0.83387 -0.75437,1.5875 0.25798,0.6723 0.72422,0.67393 1.27981,0.004 z m 9.41025,-0.73376 c 0.29403,-0.76622 -0.45241,-1.48679 -0.9867,-0.9525 -0.45157,0.45157 -0.17182,1.50538 0.39962,1.50538 0.20621,0 0.47039,-0.2488 0.58708,-0.55288 z m -11.05943,-5.64705 c 0.55627,-0.95566 1.39386,-2.14313 1.86132,-2.63882 1.47194,-1.56083 0.99326,-2.45014 -1.31879,-2.45014 -2.24779,0 -3.8087,1.52991 -3.82067,3.74479 -0.008,1.52082 1.12417,3.46259 1.87361,3.21278 0.21623,-0.0721 0.84826,-0.91295 1.40453,-1.86861 z m 21.65575,-0.32755 c 0.41637,-0.29165 0.93826,-1.07935 1.15975,-1.75046 1.26998,-3.84807 -4.3075,-6.25896 -6.16589,-2.66523 -0.81203,1.57029 -0.66118,2.75519 0.49838,3.91475 1.18016,1.18016 3.21516,1.40631 4.50776,0.50094 z m -17.5334,22.93165 c 0,-0.097 0.3175,-0.49389 0.70555,-0.88195 0.38806,-0.38805 0.70556,-1.02305 0.70556,-1.41111 0,-0.38805 0.15875,-0.70555 0.35278,-0.70555 0.60242,0 0.38827,1.27084 -0.37838,2.24548 -0.65277,0.82985 -1.38551,1.22815 -1.38551,0.75313 z"
         id="path4156"
         inkscape:connector-curvature="0"
         sodipodi:nodetypes="cscsssscsccscsssssscscsssssssssssssssscssssssscsssssssssssccsscssscscccsssssssccscssscscssss" />
      <path
         style="fill:#000000;fill-opacity:1;stroke-width:3.75830722"
         d="m 196.5098,165.8896 c -0.97527,-0.56804 -0.72379,-1.29301 0.60008,-1.72993 2.02011,-0.66669 3.7083,0.82122 1.98075,1.74578 -0.85261,0.4563 -1.77998,0.45061 -2.58083,-0.0158 z m -2.75166,-2.86452 c -0.78146,-0.78146 0.0256,-2.9662 0.9996,-3.00653 2.48403,-0.10283 2.20311,1.32431 2.10484,2.16938 -0.12203,1.0494 -2.27236,1.66924 -3.10444,0.83715 z m 7.98033,-0.48381 c -0.64446,-0.64446 -0.7014,-1.33395 -0.18918,-2.29105 2.07757,-1.93026 3.71145,-0.91691 3.51537,1.11681 0,0.48507 -0.1905,1.07244 -0.42333,1.30528 -0.59938,0.59937 -2.24681,0.52501 -2.90286,-0.13104 z"
         id="path4154"
         inkscape:connector-curvature="0"
         sodipodi:nodetypes="cssccssssscccs" />
      <ellipse
         style="opacity:1;fill:#ffffff;fill-opacity:1;stroke:none;stroke-width:3.97754145;stroke-linecap:butt;stroke-linejoin:round;stroke-miterlimit:4;stroke-dasharray:none;stroke-dashoffset:0;stroke-opacity:1"
         id="path4170"
         cx="195.7038"
         cy="160.90083"
         rx="0.79646057"
         ry="0.76460207" />
      <ellipse
         ry="0.76460207"
         rx="0.79646057"
         cy="160.19995"
         cx="204.12953"
         id="ellipse4172"
         style="opacity:1;fill:#ffffff;fill-opacity:1;stroke:none;stroke-width:3.97754145;stroke-linecap:butt;stroke-linejoin:round;stroke-miterlimit:4;stroke-dasharray:none;stroke-dashoffset:0;stroke-opacity:1" />
      <path
         style="opacity:1;fill:none;fill-opacity:1;stroke:#000000;stroke-width:0.99438542;stroke-linecap:round;stroke-linejoin:round;stroke-miterlimit:4;stroke-dasharray:none;stroke-dashoffset:0;stroke-opacity:1"
         id="path4174"
         sodipodi:type="arc"
         sodipodi:cx="197.73233"
         sodipodi:cy="169.42886"
         sodipodi:rx="2.5805321"
         sodipodi:ry="2.5486739"
         sodipodi:start="0"
         sodipodi:end="3.1415927"
         d="m 200.31286,169.42886 a 2.5805321,2.5486739 0 0 1 -1.29026,2.20722 2.5805321,2.5486739 0 0 1 -2.58054,0 2.5805321,2.5486739 0 0 1 -1.29026,-2.20722"
         sodipodi:open="true" />
      <ellipse
         style="opacity:1;fill:#d1726a;fill-opacity:1;stroke:none;stroke-width:3.9762888;stroke-linecap:round;stroke-linejoin:round;stroke-miterlimit:4;stroke-dasharray:none;stroke-dashoffset:0;stroke-opacity:1"
         id="path4176"
         cx="208.14326"
         cy="164.71967"
         rx="3.243932"
         ry="3.1538227" />
      <path
         style="fill:#d1726a;fill-opacity:1;stroke-width:3.75830722"
         d="m 190.48499,161.47591 c -0.0629,0.49296 -0.0703,0.93834 -0.001,1.11879 0.31478,0.82031 -0.6433,3.09673 -1.88929,4.48862 -0.0188,0.021 -0.0375,0.0453 -0.0563,0.0667 a 3.2439319,3.1538227 0 0 0 1.94355,0.63356 3.2439319,3.1538227 0 0 0 3.24374,-3.15382 3.2439319,3.1538227 0 0 0 -3.24063,-3.15381 z"
         id="path4180"
         inkscape:connector-curvature="0" />
    </g>
  </g>
</svg>
