<svg xmlns="http://www.w3.org/2000/svg" width="224" height="224">
  <g fill="none" stroke="#000" stroke-width="4" stroke-linejoin="round" stroke-dashoffset="18">
    <path d="M82 142V98c0-8.837 7.163-16 16-16s16 7.163 16 16v12h12c8.837 0 16 7.163 16 16s-7.163 16-16 16z"/>
    <path d="M126 174c26.51 0 48-21.49 48-48 0-20.552-12.92-38.078-31.078-44.922C136.078 62.921 118.552 50 98 50c-26.51 0-48 21.49-48 48v76z"/>
    <path d="M126 190c35.346 0 64-28.654 64-64 0-24.89-14.22-46.447-34.969-57.031C144.447 48.219 122.891 34 98 34c-35.346 0-64 28.654-64 64v92z"/>
    <path d="M126 206c44.183 0 80-35.817 80-80 0-29.274-15.732-54.862-39.193-68.807C152.862 33.732 127.274 18 98 18c-44.183 0-80 35.817-80 80v108z"/>
    <path d="M126 158c17.673 0 32-14.327 32-32 0-16.396-12.334-29.904-28.229-31.771C127.904 78.334 114.396 66 98 66c-17.673 0-32 14.327-32 32v60z"/>
    <path d="M178.006 44.922C160.808 19.05 131.395 2 98 2 44.98 2 2 44.98 2 98v124h124c53.02 0 96-42.98 96-96 0-33.676-17.344-63.297-43.582-80.432-.14-.214-.27-.433-.412-.646z"/>
  </g>
</svg>
