<svg xmlns="http://www.w3.org/2000/svg" width="64" height="64" viewBox="0 0 64 64">
  <path fill="#323232" d="M29.408 63.866c-6.75-.57-12.823-3.06-18.08-7.417-.957-.8-3.093-2.92-3.833-3.81-1.854-2.24-3.077-4.12-4.297-6.6C1.5 42.59.493 39.13.098 35.36c-.136-1.29-.136-5.37 0-6.68.653-6.29 3.17-12.2 7.333-17.2.73-.87 2.62-2.78 3.52-3.55C16.27 3.36 22.61.712 29.51.188c1.312-.1 4.713-.045 5.882.094C41.258.98 46.48 3.058 51.1 6.527c2.376 1.785 4.643 4.065 6.455 6.493 5.71 7.657 7.67 17.44 5.35 26.737-2.22 8.907-8.282 16.502-16.537 20.72-3.452 1.763-7.134 2.858-11.104 3.302-1.098.12-4.78.17-5.856.08zm5.536-4.95c1.787-.214 3.65-.618 5.248-1.137.88-.29 2.046-.73 2.123-.81.027-.03-.12-.9-.33-1.94-1.128-5.62-2.733-11.27-4.818-16.95-.514-1.4-.527-1.43-.685-1.39-.25.06-1.92.71-2.914 1.13-7.014 2.97-13.137 7.86-16.954 13.55-.525.78-1.19 1.92-1.19 2.04 0 .1 1.197.96 2.285 1.63 3.62 2.23 7.68 3.57 11.98 3.95 1.02.08 4.23.03 5.25-.09zM48.16 53.63c4.37-3.275 7.665-7.852 9.406-13.07.528-1.58 1.083-3.955.953-4.077-.19-.175-3.21-.836-5.12-1.12-3.54-.525-8.34-.552-11.21-.063l-.21.035.25.718c1.392 3.887 2.83 8.745 3.79 12.814.34 1.436.88 3.967 1.032 4.847.073.424.13.61.18.583.04-.023.447-.322.905-.665zm-35.287-5.472c2.518-3.635 6.23-7.472 9.847-10.182 3.41-2.552 7.31-4.61 10.927-5.76.537-.17.976-.338.976-.37 0-.093-.837-1.897-1.476-3.178l-.562-1.127-.853.25c-7.184 2.08-16.453 3.42-24.557 3.56l-2.33.04.04 1.58c.05 2.18.298 3.928.844 6 1 3.8 2.99 7.618 5.5 10.54l.42.498.36-.56c.2-.31.58-.88.85-1.27zM58.918 30.8c-.205-3.82-1.146-7.42-2.805-10.734-.802-1.602-1.723-3.083-2.72-4.37-.224-.29-.428-.526-.452-.524-.02.002-.24.248-.49.548-.61.745-2.51 2.608-3.49 3.416-2.25 1.874-4.86 3.578-7.64 4.99-1.05.534-2.62 1.26-3.18 1.47l-.17.064.23.498c.69 1.477 1.388 3.026 1.69 3.762.19.458.35.84.357.848.006.01.397-.025.87-.076 3.347-.364 8.046-.326 12.057.097 1.637.17 3.305.4 4.544.62.56.1 1.077.19 1.144.19.117 0 .12-.04.08-.81zM8.512 26.304c6.884-.29 13.622-1.23 20.064-2.793.81-.19 1.497-.38 1.528-.41.066-.06-.11-.38-1.356-2.49-1.384-2.34-3.058-5-4.75-7.55-1.524-2.29-3.43-5.05-3.645-5.27-.114-.11-.134-.11-.81.25-2.865 1.52-4.985 3.11-7.15 5.35-3.396 3.51-5.867 8.09-6.916 12.82l-.04.178h.786c.432 0 1.462-.03 2.29-.066zm28.48-5.42c3.524-1.46 6.817-3.446 9.472-5.715 1.33-1.14 3.387-3.34 3.223-3.45-.035-.03-.364-.29-.732-.6-2.485-2.05-5.775-3.84-8.89-4.82-3.795-1.2-7.965-1.55-11.937-.99-1.015.14-2.217.37-2.287.43-.02.02.2.37.49.773 2.17 2.99 4.74 6.9 6.73 10.206.86 1.434 2.28 3.884 2.54 4.394.16.3.04.32 1.41-.244z"/>
</svg>
