<svg xmlns="http://www.w3.org/2000/svg" width="64" height="64" viewBox="0 0 64 64">
  <path fill="#323232" d="M20.787 61.444c-6.286-2.337-11.763-6.67-15.52-12.277-1.21-1.81-3.023-5.53-3.69-7.578-2.107-6.47-2.102-13.26.013-19.7C5.55 9.87 16.24 1.39 29.008.14c9.41-.92 18.99 2.54 25.742 9.29 6.62 6.62 10.027 16.08 9.1 25.26-.22 2.18-.805 5-1.444 6.94-.666 2.027-2.488 5.755-3.685 7.54-3.2 4.79-7.44 8.49-12.58 10.98-3.64 1.77-4.99 2.07-5.76 1.3-.31-.31-.32-.48-.4-6.135-.07-5.584-.09-5.85-.43-6.8-.19-.545-.62-1.385-.95-1.868-.4-.588-.53-.9-.4-.936.11-.03.92-.17 1.79-.31 3.1-.5 6.07-1.75 7.94-3.33 2.08-1.76 3.6-4.6 4.15-7.77.88-5.02.12-8.98-2.31-12.01l-.59-.73.28-1c.38-1.37.375-3.8-.02-5.43-.46-1.93-.534-2.04-1.365-2.04-1.55 0-4.005.9-6.45 2.35L40 16.4l-1.18-.27c-2.4-.553-3.61-.673-6.81-.673-3.194 0-4.41.12-6.806.675l-1.18.27-1.614-.96c-2.447-1.454-4.9-2.347-6.45-2.347-.83 0-.908.11-1.37 2.04-.39 1.63-.4 4.06-.02 5.43l.28 1-.59.737c-1.957 2.432-2.86 5.533-2.647 9.07.34 5.657 2.142 9.285 5.796 11.67 1.74 1.137 4.28 2.045 6.84 2.445 1.972.31 1.85.2 1.21 1.07-.558.765-1.276 2.52-1.28 3.137-.01.8-3.647 1.404-5.41.896-1.637-.47-2.797-1.41-3.93-3.19-.728-1.13-1.738-2.08-2.857-2.677-1.86-.99-4.168-.664-3.28.465.1.13.56.514 1.02.854 1.44 1.06 2.327 2.17 3.263 4.096 1 2.047 1.81 2.97 3.255 3.7 1.507.76 2.676.966 4.96.868 1.09-.044 2.166-.127 2.396-.183l.42-.1v3.22c0 1.92-.064 3.34-.16 3.514-.203.385-.934.755-1.47.746-.232-.005-.95-.2-1.593-.44zm-.5-9.34c-.402-.293-.196-.705.353-.705.243 0 .534.11.645.24.173.21.16.27-.086.45-.37.26-.56.26-.92 0zm2.353-.247c-.38-.242.018-.686.613-.686.578 0 .727.24.372.59-.276.28-.645.32-.985.1zm-5.017-.228c-.268-.33-.076-.69.363-.69.454 0 .87.38.753.69-.12.29-.88.29-1.12-.01zm-2.1-1.18c-.1-.1-.183-.34-.183-.54 0-.27.086-.35.35-.35.446 0 .715.27.715.71 0 .26-.086.35-.35.35-.192 0-.432-.08-.532-.18zm-1.58-2.03c-.135-.3-.133-.43.006-.57.26-.27.69.04.75.54.04.32-.02.4-.27.4-.19 0-.39-.15-.49-.39zm-1.27-1.76c-.154-.49.162-.71.534-.37.418.38.39.69-.062.69-.242 0-.405-.11-.47-.32zm-1.37-1.22c-.058-.09-.026-.25.07-.34.19-.19.63 0 .74.32.075.23-.67.24-.81.01z"/>
</svg>
