<svg xmlns="http://www.w3.org/2000/svg" width="192" height="128" viewBox="0 0 192 128">
  <defs>
    <linearGradient id="myGradient" x1="0" x2="1" userSpaceOnUse="userSpaceOnUse">
      <stop offset="0" stop-color="#1088ff" stop-opacity=".5"/>
      <stop offset="1" stop-color="#f00" stop-opacity=".5"/>
    </linearGradient>
  </defs>
  <g fill="url(#myGradient)">
    <path d="M51.353 118.615c-5.113 0-28.123-42.622-30.68-47.788C18.118 65.66-2.337 21.38.223 16.212c2.556-5.166 46.02-6.827 51.132-6.827 5.113 0 48.576 1.66 51.133 6.827 2.556 5.167-17.897 49.45-20.453 54.615-2.557 5.166-25.567 47.788-30.68 47.788z"/>
    <path d="M102.486 118.615c-5.114 0-28.123-42.622-30.68-47.788-2.556-5.166-23.01-49.448-20.453-54.615 2.557-5.166 46.02-6.827 51.133-6.827 5.113 0 48.576 1.66 51.132 6.827 2.557 5.167-17.896 49.45-20.453 54.615-2.556 5.166-25.566 47.788-30.68 47.788z"/>
    <path d="M192 54.69a38.35 38.35 0 0 1-38.35 38.35 38.35 38.35 0 0 1-38.35-38.35 38.35 38.35 0 0 1 38.35-38.35A38.35 38.35 0 0 1 192 54.69z"/>
  </g>
</svg>
