<svg xmlns="http://www.w3.org/2000/svg" width="12" height="12" viewBox="0 0 12 12">
  <path fill="#000" d="M2.436 0a.5.5 0 0 0-.5.492c-.18.707-.73 1.26-1.436 1.444a.5.5 0 0 0-.5.5.5.5 0 0 0 .006.064H0v1h.006A.5.5 0 0 0 0 3.564a.5.5 0 0 0 .492.5c.707.18 1.26.73 1.444 1.436v.994C1.756 7.2 1.206 7.752.5 7.936a.5.5 0 0 0-.5.5.5.5 0 0 0 .006.064H0v1h.006A.5.5 0 0 0 0 9.564a.5.5 0 0 0 .492.5c.707.18 1.26.73 1.444 1.436a.5.5 0 0 0 .5.5.5.5 0 0 0 .064-.004V12h7v-.006a.5.5 0 0 0 .064.006.5.5 0 0 0 .5-.492c.18-.707.73-1.26 1.436-1.444a.5.5 0 0 0 .5-.5.5.5 0 0 0-.006-.064H12v-1h-.006A.5.5 0 0 0 12 8.436a.5.5 0 0 0-.492-.5c-.707-.18-1.26-.73-1.444-1.436v-.994c.18-.706.73-1.258 1.436-1.442a.5.5 0 0 0 .5-.5.5.5 0 0 0-.006-.064H12v-1h-.006A.5.5 0 0 0 12 2.436a.5.5 0 0 0-.492-.5c-.707-.18-1.26-.73-1.444-1.436a.5.5 0 0 0-.5-.5.5.5 0 0 0-.064.004V0h-7v.006A.5.5 0 0 0 2.436 0z"/>
</svg>
