<svg xmlns="http://www.w3.org/2000/svg" width="78" height="30" viewBox="0 0 78 30">
  <path stroke="#000" stroke-width="2" stroke-dashoffset="18" d="M75.243 2.758c1.648 1.648 2.193 4.103 1.395 6.294-.797 2.19-2.792 3.722-5.115 3.925-2.323.203-4.553-.958-5.76-3.077C63.08 5.223 58.46 2.135 53.22 1.445 47.98.755 42.715 2.542 39 6.28 35.284 2.54 30.02.754 24.78 1.444c-5.24.69-9.86 3.778-12.543 8.455-1.207 2.12-3.437 3.28-5.76 3.076-2.323-.203-4.318-1.734-5.115-3.925-.798-2.19-.253-4.645 1.395-6.293C1.632 3.883 1 5.407 1 7c0 9.038 5.528 17.157 13.937 20.47 8.41 3.312 17.99 1.144 24.063-5.466 6.074 6.61 15.654 8.778 24.063 5.465C71.473 24.155 77 16.036 77 7c0-1.59-.632-3.117-1.757-4.242z" stroke-linecap="round" stroke-linejoin="round"/>
</svg>
