<?xml version="1.0" encoding="UTF-8" standalone="no"?>
<!-- Created with Inkscape (http://www.inkscape.org/) -->

<svg
   xmlns:dc="http://purl.org/dc/elements/1.1/"
   xmlns:cc="http://creativecommons.org/ns#"
   xmlns:rdf="http://www.w3.org/1999/02/22-rdf-syntax-ns#"
   xmlns:svg="http://www.w3.org/2000/svg"
   xmlns="http://www.w3.org/2000/svg"
   xmlns:sodipodi="http://sodipodi.sourceforge.net/DTD/sodipodi-0.dtd"
   xmlns:inkscape="http://www.inkscape.org/namespaces/inkscape"
   width="64"
   height="40"
   viewBox="0 0 64 40.000001"
   id="svg2"
   version="1.1"
   inkscape:version="0.91+devel+osxmenu r12911"
   sodipodi:docname="peacock.svg">
  <sodipodi:namedview
     id="base"
     pagecolor="#ffffff"
     bordercolor="#666666"
     borderopacity="1.0"
     inkscape:pageopacity="0.0"
     inkscape:pageshadow="2"
     inkscape:zoom="6.485495"
     inkscape:cx="32"
     inkscape:cy="29.083475"
     inkscape:document-units="px"
     inkscape:current-layer="layer1"
     showgrid="false"
     units="px"
     inkscape:snap-global="true"
     inkscape:snap-bbox="true"
     inkscape:bbox-paths="true"
     inkscape:bbox-nodes="true"
     inkscape:snap-bbox-edge-midpoints="true"
     inkscape:snap-bbox-midpoints="true"
     inkscape:object-paths="true"
     inkscape:snap-intersection-paths="true"
     inkscape:object-nodes="true"
     inkscape:snap-smooth-nodes="true"
     inkscape:snap-midpoints="true">
    <inkscape:grid
       id="grid4141"
       type="xygrid" />
  </sodipodi:namedview>
  <defs
     id="defs4" />
  <metadata
     id="metadata7">
    <rdf:RDF>
      <cc:Work
         rdf:about="">
        <dc:format>image/svg+xml</dc:format>
        <dc:type
           rdf:resource="http://purl.org/dc/dcmitype/StillImage" />
        <dc:title></dc:title>
      </cc:Work>
    </rdf:RDF>
  </metadata>
  <g
     transform="translate(0,-1082.5197)"
     id="layer1"
     inkscape:groupmode="layer"
     inkscape:label="Laag 1">
    <path
       style="fill:#202020;fill-opacity:1;fill-rule:evenodd;stroke:none;stroke-width:0.5;stroke-linecap:round;stroke-linejoin:round;stroke-miterlimit:4;stroke-dasharray:none;stroke-opacity:1"
       d="m 0,1082.5197 0,19.0762 c 0.81109393,0.018 0.81137406,0.2207 0.37695312,0.2207 -0.13363375,-7e-4 -0.25496486,0.033 -0.37695312,0.062 l 0,2.123 c 0.1186816,0.029 0.23532938,0.062 0.36523438,0.062 0.43100298,0 0.42684666,0.2002 -0.36523438,0.2168 l 0,8.2383 c 8,2 10.000089,2 25,2 1,0 1.705547,-0.073 2,-1 2.133211,-6.7131 4.284747,-10.9571 3.949219,-11.5371 -0.362079,-0.811 -1.348948,-0.8617 -2.22461,-1.8379 -0.94777,-6e-4 -1.848339,-0.1082 -2.71289,-0.127 0.470543,-0.9814 1.984768,-1.3066 2.388672,-1.4746 0.851468,-1.3652 2.297696,-1.3784 3.162109,-1.3242 0.394813,0.025 0.709223,0.1894 0.966797,0.4492 l 0.002,0 c 0.859214,-0.602 1.672357,-0.9907 2.400391,-1.2402 -0.0096,-0.038 -0.01492,-0.076 -0.01563,-0.1152 -6.51e-4,-0.263 0.202517,-0.4815 0.464843,-0.5 0.01172,-4e-4 0.02344,-4e-4 0.03516,0 0.276142,0 0.5,0.2238 0.5,0.5 0,0.2761 -0.223858,0.5 -0.5,0.5 -0.136741,-5e-4 -0.26732,-0.057 -0.361328,-0.1563 -0.722752,0.2438 -1.508861,0.5907 -2.375,1.1934 0.06841,0.1 0.144756,0.1976 0.21289,0.3125 0.854346,-0.2956 1.714858,-0.496 2.501953,-0.5098 0.03877,-0.226 0.226371,-0.3967 0.455078,-0.414 0.01237,-5e-4 0.02474,-5e-4 0.03711,0 0.276142,0 0.5,0.2238 0.5,0.5 0,0.2761 -0.223858,0.5 -0.5,0.5 -0.21303,10e-5 -0.402757,-0.1348 -0.472657,-0.336 -0.75081,0.011 -1.550007,0.2087 -2.402343,0.5 0.03213,0.083 0.07612,0.1549 0.111328,0.2442 0.209584,-0.071 0.403939,-0.091 0.634765,-0.094 0.230829,0 0.46883,0.028 0.710938,0.094 0.383405,0.1041 0.771687,0.3196 1.150391,0.5976 0.09228,-0.1398 0.24847,-0.2242 0.416015,-0.2246 0.276142,0 0.5,0.2239 0.5,0.5 0,0.2761 -0.223858,0.5 -0.5,0.5 -0.276142,0 -0.5,-0.2239 -0.5,-0.5 4e-4,-0.01 0.0011,-0.018 0.002,-0.027 -0.824149,-0.6305 -1.647082,-0.8416 -2.324218,-0.6133 0.257948,0.6632 0.855541,2.2102 0.953125,2.8672 0.635361,4.2788 0.264275,3.429 0.628906,6.6035 0.811831,0.386 2.453866,3.53 3.204986,5.1699 0.272187,0.5942 1.000592,1 2.064453,1 15.000089,0 15.935547,0 23.935547,-2 l 0,-8.2422 c -0.811093,-0.018 -0.811374,-0.2187 -0.376953,-0.2187 0.133634,7e-4 0.254963,-0.033 0.376953,-0.062 l 0,-2.125 c -0.118682,-0.029 -0.235329,-0.062 -0.365234,-0.062 -0.431003,0 -0.426847,-0.1984 0.365234,-0.2149 l 0,-19.0742 -15.53125,0 c -0.196378,0.1967 -0.260619,0.1498 -0.201172,0 l -0.595703,0 c -0.224116,0.2559 -0.604085,0.3153 -0.888672,0.1152 -0.0454,-0.032 -0.07443,-0.075 -0.109375,-0.1152 l -6.708984,0 c -0.0098,0.1847 -0.03705,0.3738 -0.0957,0.5645 -0.264396,0.8593 -0.47788,0.7908 -0.345706,0.3613 0.100172,-0.3256 0.07859,-0.6479 -0.01758,-0.9258 l -1.998047,0 c -0.04606,0.087 -0.102372,0.1647 -0.132812,0.2637 -0.117081,0.3805 -0.278632,0.3398 -0.134766,-0.2637 l -10.46875,0 c 0.139951,0.5392 -0.01273,0.5736 -0.140625,0.2109 -0.0281,-0.08 -0.07879,-0.1394 -0.117187,-0.2109 l -2.017578,0 c -0.09506,0.2883 -0.103919,0.6254 0.01367,0.959 0.149438,0.4239 -0.06046,0.5002 -0.359373,-0.3477 -0.07246,-0.2055 -0.109002,-0.4113 -0.123047,-0.6113 l -6.701172,0 c -0.03495,0.04 -0.06397,0.083 -0.109375,0.1152 -0.284587,0.2001 -0.664556,0.1407 -0.888672,-0.1152 l -0.595703,0 c 0.05945,0.1498 -0.0048,0.1967 -0.201172,0 l -15.53125,0 z m 5.6015625,0.037 c 0.406891,10e-5 0.8568398,0.1492 1.2539063,0.4473 0.7189684,0.5398 0.5840396,0.7171 0.2246093,0.4472 -0.5955997,-0.4469 -1.3812903,-0.4064 -1.7539062,0.09 -0.372615,0.4963 -0.1932559,1.2618 0.4023437,1.709 0.3594304,0.2696 0.226781,0.4499 -0.4921875,-0.09 -0.7935148,-0.5957 -1.0745619,-1.5605 -0.6289062,-2.1562 0.2236398,-0.2979 0.5877633,-0.4474 0.9941406,-0.4473 z m 52.8105465,0.01 c 0.40635,0 0.767711,0.1557 0.988282,0.455 l 0,0 c 0.439489,0.6002 0.149212,1.5629 -0.650391,2.1504 -0.724489,0.5326 -0.856332,0.352 -0.494141,0.086 0.600172,-0.441 0.787408,-1.2049 0.419922,-1.7051 -0.367485,-0.5001 -1.15178,-0.5503 -1.751953,-0.1093 -0.36219,0.2662 -0.495972,0.087 0.228516,-0.4453 0.400115,-0.2938 0.852892,-0.4375 1.259765,-0.4336 z m -32.669921,0.2929 c 0.277401,0.01 0.520802,0.1876 0.613281,0.4493 0.124605,0.3516 -0.06009,0.7377 -0.41211,0.8613 -0.3511,0.1233 -0.735726,-0.061 -0.859375,-0.4121 -0.123321,-0.3511 0.06112,-0.7358 0.41211,-0.8594 0.07889,-0.028 0.162344,-0.041 0.246094,-0.039 z m 12.574218,0.016 c 0.0675,-3e-4 0.134649,0.01 0.199219,0.029 0.356103,0.1098 0.55556,0.4877 0.445313,0.8437 -0.109876,0.3551 -0.486419,0.5543 -0.841797,0.4453 -0.355886,-0.109 -0.556093,-0.4858 -0.447266,-0.8418 0.08684,-0.2832 0.348332,-0.4765 0.644531,-0.4765 z m 18.935547,1.0703 c 0.205497,0.01 0.39608,0.1094 0.517578,0.2754 0.220024,0.2994 0.156256,0.7205 -0.142578,0.9414 -0.299818,0.2213 -0.722349,0.1575 -0.943359,-0.1426 -0.220936,-0.3003 -0.156186,-0.723 0.144531,-0.9434 0.122474,-0.09 0.271837,-0.1363 0.423828,-0.1308 z m -50.5253905,0.01 c 0.1590668,-0.01 0.3161357,0.039 0.4433594,0.1348 0.2975022,0.2234 0.3578119,0.6456 0.1347656,0.9434 -0.2235359,0.2987 -0.647199,0.3591 -0.9453125,0.1347 -0.2975022,-0.2234 -0.3578119,-0.6456 -0.1347656,-0.9433 0.1192755,-0.1596 0.3030301,-0.2583 0.5019531,-0.2696 z m 25.1894535,1.2911 c 0.74361,-0.037 1.386457,0.7389 1.435546,1.7304 0.04444,0.8977 -0.178951,0.9059 -0.201171,0.4571 -0.03682,-0.7436 -0.569778,-1.3221 -1.189453,-1.2911 -0.619675,0.031 -1.093461,0.6588 -1.056641,1.4024 0.02222,0.4487 -0.201654,0.4621 -0.246094,-0.4356 -0.04909,-0.9915 0.514205,-1.8262 1.257813,-1.8632 z m 0.101562,2.0195 c 0.371522,-0.018 0.687056,0.2691 0.705078,0.6406 0.0187,0.3715 -0.267148,0.688 -0.638672,0.707 -0.372268,0.019 -0.689021,-0.2683 -0.707031,-0.6406 -0.01868,-0.3723 0.268324,-0.689 0.640625,-0.707 z m -9.634766,1.1816 c 0.480557,0.047 0.996067,0.3471 1.365235,0.8457 0.534775,0.7224 0.353281,0.8533 0.08594,0.4922 -0.443007,-0.5984 -1.206417,-0.7832 -1.705078,-0.414 -0.498659,0.3691 -0.544568,1.1535 -0.101562,1.7519 0.267344,0.3611 0.08946,0.4957 -0.445313,-0.2266 -0.590672,-0.7979 -0.586672,-1.805 0.01172,-2.248 0.224397,-0.1661 0.500729,-0.2291 0.789062,-0.2012 z m 19.234376,0 c 0.288333,-0.028 0.564669,0.035 0.789062,0.2012 0.598396,0.443 0.602394,1.4501 0.01172,2.248 -0.534763,0.7223 -0.712657,0.5877 -0.445313,0.2266 0.443006,-0.5984 0.397098,-1.3828 -0.101563,-1.7519 -0.49866,-0.3692 -1.262072,-0.1844 -1.705078,0.414 -0.267346,0.3611 -0.448831,0.2302 0.08594,-0.4922 0.369172,-0.4986 0.884679,-0.7992 1.365235,-0.8457 z m -27.289063,0.4571 c 0.406891,10e-5 0.85684,0.1491 1.253906,0.4472 0.718968,0.5398 0.58404,0.7172 0.22461,0.4473 -0.595599,-0.4469 -1.381291,-0.4065 -1.753907,0.09 -0.372615,0.4963 -0.193256,1.2638 0.402344,1.711 0.35943,0.2696 0.226781,0.448 -0.492187,-0.092 -0.793515,-0.5958 -1.074563,-1.5606 -0.628907,-2.1563 0.22364,-0.2978 0.587764,-0.4474 0.994141,-0.4472 z m 35.357422,0.01 c 0.406349,0 0.76771,0.1558 0.988281,0.4551 l 0,0 c 0.4395,0.6002 0.149217,1.5629 -0.65039,2.1504 -0.724489,0.5327 -0.856332,0.3501 -0.494141,0.084 0.600172,-0.441 0.789361,-1.203 0.421875,-1.7031 -0.367485,-0.5002 -1.153733,-0.5504 -1.753906,-0.1094 -0.36219,0.2661 -0.495973,0.087 0.228515,-0.4453 0.400116,-0.2937 0.852892,-0.4375 1.259766,-0.4336 z m -26.464844,1.2324 c 0.20586,0.01 0.39723,0.1077 0.519531,0.2735 0.220563,0.2989 0.157669,0.72 -0.140625,0.9414 -0.299278,0.2219 -0.721809,0.1589 -0.943359,-0.1406 -0.220563,-0.299 -0.157669,-0.72 0.140625,-0.9415 0.122214,-0.091 0.271604,-0.1376 0.423828,-0.1328 z m 17.605469,0 c 0.136188,0.01 0.267618,0.052 0.376953,0.1328 0.298294,0.2215 0.361188,0.6425 0.140625,0.9415 -0.22155,0.2995 -0.644081,0.3625 -0.943359,0.1406 -0.298294,-0.2215 -0.361188,-0.6425 -0.140625,-0.9414 0.132098,-0.1791 0.344045,-0.2814 0.566406,-0.2735 z m 7.699219,0.1465 c 0.206191,0.01 0.397612,0.109 0.519531,0.2754 0.219604,0.3 0.154949,0.7211 -0.144531,0.9414 -0.299818,0.2214 -0.72235,0.1575 -0.94336,-0.1426 -0.220936,-0.3003 -0.156185,-0.7229 0.144531,-0.9433 0.122475,-0.09 0.271837,-0.1363 0.423829,-0.1309 z m -33.003907,0.01 c 0.135723,0.01 0.266433,0.053 0.375,0.1347 0.298746,0.2236 0.359144,0.6472 0.134766,0.9454 -0.224135,0.2981 -0.647711,0.3576 -0.945312,0.1328 -0.296864,-0.224 -0.356287,-0.6461 -0.132813,-0.9434 0.133368,-0.1781 0.346036,-0.279 0.568359,-0.2695 z m 12.933594,0.9121 c 0.63578,-0.036 1.304273,0.5045 1.580078,1.3281 0.285378,0.8523 0.07235,0.9222 -0.07031,0.4961 -0.236406,-0.706 -0.905809,-1.1189 -1.494141,-0.9219 -0.588329,0.197 -0.873125,0.9287 -0.636719,1.6348 0.142665,0.426 -0.07009,0.4988 -0.355468,-0.3535 -0.315207,-0.9413 10e-4,-1.8964 0.707031,-2.1328 0.08825,-0.03 0.178701,-0.046 0.269531,-0.051 z m 7.160156,0 c 0.09054,0.01 0.178645,0.029 0.265625,0.062 0.695844,0.2648 0.974172,1.2323 0.621094,2.1601 -0.319661,0.84 -0.528947,0.7578 -0.369141,0.3379 0.264809,-0.6959 0.0096,-1.4394 -0.570312,-1.6601 -0.579865,-0.2207 -1.266441,0.1654 -1.53125,0.8613 -0.159803,0.4199 -0.368488,0.342 -0.04883,-0.498 0.308943,-0.812 0.999015,-1.3254 1.632812,-1.2637 z m -0.716796,1.9082 c 0.08988,0 0.179531,0.011 0.263671,0.043 0.348835,0.1322 0.523912,0.5226 0.390625,0.8711 -0.114609,0.2992 -0.424108,0.4765 -0.740234,0.4238 -0.02235,0 -0.04452,-0.01 -0.06641,-0.014 -0.02183,-0.01 -0.04334,-0.013 -0.06445,-0.022 -0.347002,-0.133 -0.520868,-0.5218 -0.388672,-0.8691 0.09641,-0.253 0.334876,-0.4238 0.605469,-0.4336 z m -5.890626,0.025 c 0.302696,-0.015 0.578399,0.1733 0.673829,0.4609 0.117087,0.3527 -0.07337,0.7336 -0.425782,0.8516 -0.35272,0.1185 -0.73477,-0.071 -0.853515,-0.4238 -0.118363,-0.3533 0.07235,-0.7356 0.425781,-0.8536 0.05802,-0.02 0.118468,-0.032 0.179687,-0.035 z m -22.6601558,0.1601 c 0.2257361,0 0.4635277,0.041 0.6992188,0.1192 0.853532,0.2822 0.7802176,0.4946 0.3535156,0.3535 -0.7070732,-0.234 -1.4378612,0.055 -1.6328125,0.6445 -0.1949509,0.5892 0.218708,1.2563 0.9257813,1.4903 0.426702,0.141 0.3593914,0.3546 -0.4941406,0.072 -0.9427643,-0.312 -1.5190971,-1.1387 -1.2851563,-1.8457 0.175456,-0.5289 0.7563857,-0.842 1.4335937,-0.834 z m 51.3046878,0 c 0.677208,-0.01 1.258138,0.3037 1.433594,0.834 0.23394,0.707 -0.342392,1.5337 -1.285157,1.8457 -0.853532,0.2823 -0.920842,0.069 -0.49414,-0.072 0.707073,-0.234 1.120732,-0.9011 0.925781,-1.4903 -0.194951,-0.5891 -0.92574,-0.8785 -1.632813,-0.6445 -0.426702,0.1411 -0.500016,-0.071 0.353516,-0.3535 0.235691,-0.078 0.473483,-0.1164 0.699219,-0.1192 z m -50.1640628,1.0079 c 0.067697,0 0.1348558,0.012 0.1992188,0.033 0.3531094,0.1172 0.5445292,0.4983 0.4277344,0.8515 -0.1164008,0.3539 -0.4977457,0.5463 -0.8515625,0.4297 -0.3531094,-0.1172 -0.5445285,-0.4983 -0.4277344,-0.8516 0.092558,-0.2805 0.3569692,-0.4681 0.6523437,-0.4628 z m 49.0039068,0 c 0.302494,-0.014 0.577275,0.1752 0.671874,0.4628 0.116794,0.3533 -0.07463,0.7344 -0.427734,0.8516 -0.353817,0.1166 -0.735161,-0.076 -0.851562,-0.4297 -0.116795,-0.3532 0.07462,-0.7343 0.427734,-0.8515 0.05811,-0.019 0.118567,-0.03 0.179688,-0.033 z m -33.41211,0.9355 c 0.406725,0.01 0.855336,0.1613 1.248047,0.4648 0.711081,0.5498 0.572285,0.726 0.216797,0.4512 -0.589066,-0.4553 -1.374447,-0.4244 -1.753906,0.066 -0.379458,0.4909 -0.21016,1.2576 0.378906,1.7129 0.355488,0.2744 0.220847,0.4521 -0.490234,-0.098 -0.784818,-0.6068 -1.053494,-1.5749 -0.59961,-2.1641 0.227675,-0.2947 0.593275,-0.4396 1,-0.4336 z m 17.892578,0.018 c 0.406125,0.01 0.766225,0.1664 0.982422,0.4687 l 0,0 c 0.430705,0.6064 0.126042,1.5648 -0.68164,2.1407 -0.731818,0.5221 -0.859994,0.3389 -0.494141,0.078 0.606242,-0.4323 0.803536,-1.194 0.443359,-1.6992 -0.360176,-0.5052 -1.143758,-0.565 -1.75,-0.1328 -0.365853,0.2608 -0.49744,0.08 0.234375,-0.4415 0.404162,-0.288 0.858972,-0.4257 1.265625,-0.416 z m -1.246094,1.3613 c 0.229611,-0.011 0.449006,0.096 0.582032,0.2832 0.215507,0.3032 0.144707,0.7236 -0.158203,0.9395 -0.303162,0.2155 -0.723593,0.1447 -0.939453,-0.1582 -0.215914,-0.3027 -0.146006,-0.723 0.15625,-0.9395 0.1053,-0.075 0.230065,-0.1187 0.359374,-0.125 z m -23.080078,0.01 c 0.225534,0.01 0.461663,0.053 0.695313,0.1367 0.84614,0.3026 0.76871,0.5129 0.345703,0.3614 -0.70095,-0.251 -1.439238,0.019 -1.648438,0.6035 -0.209198,0.5841 0.189676,1.2626 0.890626,1.5136 0.423006,0.152 0.348093,0.3616 -0.498047,0.059 -0.9346,-0.3347 -1.489319,-1.1741 -1.238282,-1.875 0.188278,-0.5256 0.776526,-0.8237 1.453125,-0.7988 z m 30.707032,0 c 0.676599,-0.025 1.264848,0.2732 1.453125,0.7988 0.251038,0.7009 -0.303682,1.5403 -1.238282,1.875 -0.84614,0.3029 -0.9191,0.093 -0.496093,-0.059 0.70095,-0.251 1.097869,-0.9295 0.888672,-1.5136 -0.2092,-0.5839 -0.947488,-0.8545 -1.648438,-0.6035 -0.423007,0.1515 -0.500437,-0.058 0.345703,-0.3614 0.23365,-0.084 0.469779,-0.1284 0.695313,-0.1367 z m -23.167969,0.02 c 0.158227,-0.01 0.313809,0.042 0.439453,0.1387 0.295657,0.2277 0.349944,0.6524 0.121094,0.9472 -0.227645,0.2944 -0.65081,0.3486 -0.945313,0.1211 -0.295656,-0.2277 -0.349943,-0.6524 -0.121093,-0.9472 0.122053,-0.157 0.307179,-0.2521 0.505859,-0.2598 z m 22.101562,1.0137 c 0.277645,0.01 0.521905,0.1856 0.615235,0.4472 0.12528,0.3501 -0.05648,0.7354 -0.40625,0.8614 -0.350588,0.1265 -0.737342,-0.056 -0.863282,-0.4063 -0.125092,-0.3506 0.05766,-0.7362 0.408204,-0.8613 0.07876,-0.029 0.162223,-0.043 0.246093,-0.041 z m -28.59375,0 c 0.09026,0 0.180595,0.01 0.265625,0.039 0.350544,0.1252 0.533295,0.5108 0.408204,0.8614 -0.12594,0.3508 -0.512694,0.5328 -0.863282,0.4062 -0.34977,-0.1259 -0.53153,-0.5113 -0.40625,-0.8613 0.09129,-0.2545 0.325799,-0.4298 0.595703,-0.4453 z m 12.978516,0.6953 c -0.332987,0.019 -0.56132,0.3454 -0.615234,0.5234 0.713778,0.4113 1.002257,0.044 0.980468,-0.4238 -0.131311,-0.079 -0.254238,-0.1054 -0.365234,-0.1 z m -9.210937,3.2305 c 0.898371,-0.027 0.902243,0.1979 0.453124,0.2109 -0.744219,0.022 -1.332913,0.5419 -1.314453,1.1621 0.01846,0.6201 0.63664,1.106 1.38086,1.084 0.449119,-0.013 0.45892,0.2113 -0.439453,0.2383 -0.992293,0.029 -1.815741,-0.5508 -1.837891,-1.295 -0.02215,-0.7442 0.765518,-1.3713 1.757813,-1.4003 z m 31.835937,0 c 0.993014,0.01 1.796969,0.6127 1.792969,1.3574 -0.004,0.7447 -0.813627,1.3479 -1.806641,1.3379 -0.899025,0 -0.89671,-0.2246 -0.447265,-0.2246 0.744759,0 1.352168,-0.4966 1.355468,-1.1172 0.0033,-0.6206 -0.59899,-1.1328 -1.34375,-1.1328 -0.449445,0 -0.449806,-0.2207 0.449219,-0.2207 z m -42.580078,0 c 0.899025,0 0.896712,0.2265 0.447265,0.2265 -0.74476,0 -1.3521382,0.4966 -1.3554682,1.1172 -0.00333,0.6206 0.5989902,1.1309 1.3437502,1.1309 0.449445,0 0.449806,0.2226 -0.449219,0.2226 -0.9930144,-0.01 -1.7969687,-0.6147 -1.7929688,-1.3594 0.004,-0.7447 0.8136263,-1.3478 1.8066408,-1.3378 z m 31.742187,0 c 0.992293,-0.03 1.815741,0.5487 1.837891,1.2929 0.02215,0.7442 -0.76552,1.3714 -1.757813,1.4004 -0.898372,0.027 -0.902245,-0.196 -0.453124,-0.209 0.744218,-0.022 1.332913,-0.5438 1.314453,-1.164 -0.01846,-0.6201 -0.63664,-1.106 -1.38086,-1.084 -0.449119,0.013 -0.45892,-0.2093 0.439453,-0.2363 z m -20.082031,0.6386 c 0.372912,-0.012 0.684573,0.2814 0.695313,0.6543 0.01082,0.3722 -0.282136,0.6826 -0.654297,0.6934 -0.372159,0.011 -0.68261,-0.2822 -0.69336,-0.6543 -0.01084,-0.3714 0.280954,-0.6816 0.652344,-0.6934 z m 30.019531,0.024 c 0.372051,0 0.671822,0.3056 0.669922,0.6777 -0.0013,0.3728 -0.304921,0.6738 -0.677734,0.6719 -0.372051,0 -0.671822,-0.3057 -0.669922,-0.6778 0.0013,-0.3728 0.304922,-0.6737 0.677734,-0.6718 z m 10.785157,0 c 0.37205,0 0.671821,0.3056 0.669921,0.6777 -0.0013,0.3728 -0.304921,0.6738 -0.677734,0.6719 -0.372051,0 -0.671822,-0.3057 -0.669922,-0.6778 0.0013,-0.3728 0.304922,-0.6737 0.677735,-0.6718 z m -62.35546912,0.014 c 0.37205082,0 0.67185472,0.3057 0.66992192,0.6777 -0.00238,0.3721 -0.3056808,0.6719 -0.67773442,0.67 -0.37205083,0 -0.67185488,-0.3057 -0.66992188,-0.6778 0.002381,-0.372 0.30568077,-0.6718 0.67773438,-0.6699 z m 10.78515612,0 c 0.372051,0 0.671822,0.3057 0.669922,0.6777 -0.0024,0.3721 -0.305681,0.6719 -0.677734,0.67 -0.372051,0 -0.671822,-0.3057 -0.669922,-0.6778 0.0024,-0.372 0.305681,-0.6718 0.677734,-0.6699 z m 29.970703,0.023 c 0.372159,-0.011 0.68261,0.2822 0.69336,0.6543 0.01084,0.3715 -0.280954,0.6816 -0.652344,0.6934 -0.372912,0.012 -0.684573,-0.2814 -0.695313,-0.6543 -0.01082,-0.3722 0.282136,-0.6826 0.654297,-0.6934 z m -24.460937,4.1309 c 0.12525,0.021 0.04458,0.1257 -0.19336,0.2109 -0.70095,0.251 -1.097868,0.9277 -0.888672,1.5118 0.209199,0.5839 0.947488,0.8564 1.648438,0.6054 0.423007,-0.1515 0.500437,0.058 -0.345703,0.3614 -0.9346,0.3347 -1.897402,0.037 -2.148438,-0.6641 -0.251038,-0.7009 0.303682,-1.5403 1.238282,-1.875 0.211535,-0.076 0.374853,-0.1202 0.49414,-0.1406 0.08948,-0.015 0.153563,-0.017 0.195313,-0.01 z m 29.722656,0.01 c 0.07131,-0.034 0.301539,-0.011 0.724609,0.1406 0.9346,0.3347 1.489319,1.1741 1.238282,1.875 -0.251037,0.7008 -1.213838,0.9988 -2.148438,0.6641 -0.84614,-0.3026 -0.76871,-0.5128 -0.345703,-0.3613 0.70095,0.251 1.439239,-0.021 1.648438,-0.6055 0.209198,-0.5841 -0.189676,-1.2607 -0.890626,-1.5117 -0.211502,-0.076 -0.297872,-0.1673 -0.226562,-0.2012 z M 17.75,1106.8674 c 0.277868,0.01 0.522953,0.1838 0.617188,0.4453 0.126378,0.3511 -0.05661,0.7381 -0.408204,0.8633 -0.35057,0.125 -0.736175,-0.058 -0.861328,-0.4083 -0.12528,-0.35 0.05648,-0.7353 0.40625,-0.8613 0.07889,-0.028 0.162344,-0.041 0.246094,-0.039 z m 28.480469,0 c 0.09027,0 0.180595,0.01 0.265625,0.039 0.34977,0.126 0.53153,0.5113 0.40625,0.8613 -0.125153,0.3506 -0.510758,0.5333 -0.861328,0.4082 -0.351594,-0.1251 -0.534583,-0.5121 -0.408204,-0.8632 0.09157,-0.2551 0.327026,-0.4306 0.597657,-0.4453 z m -22.84375,0.8086 c 0.07784,0.013 0.01691,0.1254 -0.166016,0.2558 -0.606242,0.4322 -0.803536,1.1921 -0.443359,1.6973 0.360176,0.5052 1.143758,0.565 1.75,0.1328 0.365853,-0.2609 0.49744,-0.08 -0.234375,0.4414 -0.808324,0.576 -1.815836,0.5536 -2.248047,-0.053 -0.432212,-0.6062 -0.126683,-1.5644 0.68164,-2.1407 0.365909,-0.2611 0.582317,-0.3471 0.660157,-0.3339 z m 17.289062,0.01 c 0.0783,-0.01 0.288992,0.082 0.644531,0.3574 0.785422,0.6071 1.05496,1.577 0.59961,2.166 -0.45535,0.5894 -1.462625,0.574 -2.248047,-0.033 -0.711081,-0.5498 -0.572285,-0.726 -0.216797,-0.4512 0.589066,0.4554 1.374447,0.4265 1.753906,-0.064 0.379458,-0.4909 0.21016,-1.2595 -0.378906,-1.7149 -0.177747,-0.1372 -0.232587,-0.2496 -0.154297,-0.2597 z m -0.917969,0.2011 c 0.15913,-0.01 0.315507,0.043 0.441407,0.1406 0.294405,0.2277 0.348612,0.6509 0.121093,0.9454 -0.227775,0.2956 -0.652439,0.3499 -0.947265,0.1211 -0.293775,-0.2283 -0.347098,-0.6514 -0.119141,-0.9454 0.121236,-0.1571 0.305594,-0.2529 0.503906,-0.2617 z m -15.548828,0.029 c 0.228563,-0.011 0.446992,0.095 0.580078,0.2813 0.215915,0.3026 0.146005,0.723 -0.15625,0.9394 -0.303008,0.2173 -0.724826,0.1473 -0.941406,-0.1562 -0.216841,-0.3035 -0.145937,-0.7255 0.158203,-0.9414 0.105518,-0.075 0.230264,-0.1174 0.359375,-0.1231 z m -17.3164059,1.8554 c 0.1244405,0.024 0.040801,0.1257 -0.1992187,0.2051 -0.7070732,0.234 -1.1207326,0.903 -0.9257813,1.4922 0.1949509,0.5891 0.9257393,0.8766 1.6328125,0.6426 0.426702,-0.1412 0.5000164,0.071 -0.3535156,0.3535 -0.9427643,0.3119 -1.8988717,-0.01 -2.1328125,-0.7148 -0.2339413,-0.707 0.3423919,-1.5338 1.2851563,-1.8457 0.2133829,-0.071 0.3782614,-0.1095 0.4980468,-0.127 0.089838,-0.013 0.1538324,-0.014 0.1953125,-0.01 z m 50.2148439,0 c 0.04148,-0.01 0.105473,-0.01 0.195312,0.01 0.119786,0.017 0.284664,0.056 0.498047,0.127 0.942765,0.3119 1.519098,1.1387 1.285157,1.8457 -0.233943,0.7052 -1.190048,1.0267 -2.132813,0.7148 -0.853532,-0.2821 -0.780218,-0.4947 -0.353516,-0.3535 0.707073,0.2339 1.437861,-0.053 1.632813,-0.6425 0.19495,-0.5892 -0.218708,-1.2582 -0.925781,-1.4922 -0.240015,-0.079 -0.323661,-0.1813 -0.199219,-0.2051 z m -49.6660158,0.4571 c 0.3032041,-0.015 0.5790377,0.1745 0.6738282,0.4629 0.1167941,0.3532 -0.074625,0.7343 -0.4277344,0.8515 -0.3532503,0.1168 -0.7343415,-0.075 -0.8515625,-0.4277 -0.1167948,-0.3533 0.074625,-0.7343 0.4277344,-0.8516 0.057393,-0.02 0.1171773,-0.031 0.1777343,-0.035 z m 49.0957028,0 c 0.0678,0 0.134959,0.014 0.199219,0.035 0.353104,0.1173 0.54453,0.4984 0.427734,0.8516 -0.117221,0.3531 -0.498312,0.5445 -0.851562,0.4277 -0.353114,-0.1172 -0.544528,-0.4983 -0.427734,-0.8515 0.09256,-0.2806 0.356969,-0.4682 0.652343,-0.4629 z"
       id="path4143"
       inkscape:connector-curvature="0" />
  </g>
</svg>
