<?xml version="1.0" encoding="UTF-8" standalone="no"?>
<!-- Created with Inkscape (http://www.inkscape.org/) -->

<svg
   xmlns:dc="http://purl.org/dc/elements/1.1/"
   xmlns:cc="http://creativecommons.org/ns#"
   xmlns:rdf="http://www.w3.org/1999/02/22-rdf-syntax-ns#"
   xmlns:svg="http://www.w3.org/2000/svg"
   xmlns="http://www.w3.org/2000/svg"
   xmlns:sodipodi="http://sodipodi.sourceforge.net/DTD/sodipodi-0.dtd"
   xmlns:inkscape="http://www.inkscape.org/namespaces/inkscape"
   width="64"
   height="48"
   viewBox="0 0 64 48.000002"
   id="svg2"
   version="1.1"
   inkscape:version="0.91+devel+osxmenu r12911"
   sodipodi:docname="image4.svg">
  <defs
     id="defs4" />
  <sodipodi:namedview
     id="base"
     pagecolor="#ffffff"
     bordercolor="#666666"
     borderopacity="1.0"
     inkscape:pageopacity="0.0"
     inkscape:pageshadow="2"
     inkscape:zoom="3.2537961"
     inkscape:cx="32"
     inkscape:cy="24"
     inkscape:document-units="px"
     inkscape:current-layer="layer1"
     showgrid="false"
     units="px"
     inkscape:snap-bbox="true"
     inkscape:bbox-paths="true"
     inkscape:bbox-nodes="true"
     inkscape:snap-bbox-edge-midpoints="true"
     inkscape:snap-bbox-midpoints="true"
     inkscape:object-paths="true"
     inkscape:snap-intersection-paths="true"
     inkscape:object-nodes="true"
     inkscape:snap-smooth-nodes="true"
     inkscape:snap-midpoints="true"
     inkscape:snap-object-midpoints="true"
     inkscape:snap-center="true"
     inkscape:snap-page="true">
    <inkscape:grid
       type="xygrid"
       id="grid4143" />
  </sodipodi:namedview>
  <metadata
     id="metadata7">
    <rdf:RDF>
      <cc:Work
         rdf:about="">
        <dc:format>image/svg+xml</dc:format>
        <dc:type
           rdf:resource="http://purl.org/dc/dcmitype/StillImage" />
        <dc:title />
      </cc:Work>
    </rdf:RDF>
  </metadata>
  <g
     inkscape:label="Laag 1"
     inkscape:groupmode="layer"
     id="layer1"
     transform="translate(0,-1074.5197)">
    <g
       id="g4432">
      <circle
         r="36"
         cy="1122.5197"
         cx="56"
         id="circle4430"
         style="opacity:1;fill:#ffffff;fill-opacity:1;stroke:none;stroke-width:32;stroke-linecap:butt;stroke-linejoin:miter;stroke-miterlimit:4;stroke-dasharray:none;stroke-dashoffset:18;stroke-opacity:1" />
      <g
         style="stroke:#e91b6b;stroke-opacity:1"
         id="g4383"
         transform="translate(56.000001,4.7e-5)">
        <circle
           style="opacity:1;fill:none;fill-opacity:1;stroke:#e91b6b;stroke-width:4;stroke-linecap:butt;stroke-linejoin:round;stroke-miterlimit:4;stroke-dasharray:none;stroke-dashoffset:18;stroke-opacity:1"
           id="circle4385"
           cx="-3.6737984e-07"
           cy="1122.5197"
           r="22" />
        <circle
           id="circle4387"
           style="opacity:1;fill:none;fill-opacity:1;stroke:#e91b6b;stroke-width:4;stroke-linecap:butt;stroke-linejoin:round;stroke-miterlimit:4;stroke-dasharray:none;stroke-dashoffset:18;stroke-opacity:1"
           cx="-2.1045736e-07"
           cy="1122.5197"
           r="14" />
        <circle
           style="opacity:1;fill:none;fill-opacity:1;stroke:#e91b6b;stroke-width:4;stroke-linecap:butt;stroke-linejoin:round;stroke-miterlimit:4;stroke-dasharray:none;stroke-dashoffset:18;stroke-opacity:1"
           id="circle4389"
           cx="-5.353488e-08"
           cy="1122.5197"
           r="6" />
        <circle
           id="circle4391"
           style="opacity:1;fill:none;fill-opacity:1;stroke:#e91b6b;stroke-width:4;stroke-linecap:butt;stroke-linejoin:round;stroke-miterlimit:4;stroke-dasharray:none;stroke-dashoffset:18;stroke-opacity:1"
           cx="-5.2430232e-07"
           cy="1122.5197"
           r="30" />
      </g>
    </g>
    <g
       id="g4440">
      <circle
         style="opacity:1;fill:#ffffff;fill-opacity:1;stroke:none;stroke-width:32;stroke-linecap:butt;stroke-linejoin:miter;stroke-miterlimit:4;stroke-dasharray:none;stroke-dashoffset:18;stroke-opacity:1"
         id="circle4428"
         cx="56"
         cy="1074.5197"
         r="36" />
      <g
         transform="translate(56,-47.999953)"
         id="g4361"
         style="stroke:#3472fd;stroke-opacity:1">
        <circle
           r="22"
           cy="1122.5197"
           cx="-3.6737984e-07"
           id="circle4363"
           style="opacity:1;fill:none;fill-opacity:1;stroke:#3472fd;stroke-width:4;stroke-linecap:butt;stroke-linejoin:round;stroke-miterlimit:4;stroke-dasharray:none;stroke-dashoffset:18;stroke-opacity:1" />
        <circle
           r="14"
           cy="1122.5197"
           cx="-2.1045736e-07"
           style="opacity:1;fill:none;fill-opacity:1;stroke:#3472fd;stroke-width:4;stroke-linecap:butt;stroke-linejoin:round;stroke-miterlimit:4;stroke-dasharray:none;stroke-dashoffset:18;stroke-opacity:1"
           id="circle4365" />
        <circle
           r="6"
           cy="1122.5197"
           cx="-5.353488e-08"
           id="circle4367"
           style="opacity:1;fill:none;fill-opacity:1;stroke:#3472fd;stroke-width:4;stroke-linecap:butt;stroke-linejoin:round;stroke-miterlimit:4;stroke-dasharray:none;stroke-dashoffset:18;stroke-opacity:1" />
        <circle
           r="30"
           cy="1122.5197"
           cx="-5.2430232e-07"
           style="opacity:1;fill:none;fill-opacity:1;stroke:#3472fd;stroke-width:4;stroke-linecap:butt;stroke-linejoin:round;stroke-miterlimit:4;stroke-dasharray:none;stroke-dashoffset:18;stroke-opacity:1"
           id="circle4369" />
      </g>
    </g>
    <g
       id="g4448">
      <circle
         r="36"
         cy="1074.5197"
         cx="8"
         id="path4412"
         style="opacity:1;fill:#ffffff;fill-opacity:1;stroke:none;stroke-width:32;stroke-linecap:butt;stroke-linejoin:miter;stroke-miterlimit:4;stroke-dasharray:none;stroke-dashoffset:18;stroke-opacity:1" />
      <g
         style="stroke:#000000;stroke-opacity:1"
         id="g4597"
         transform="translate(8,-48)">
        <circle
           style="opacity:1;fill:none;fill-opacity:1;stroke:#000000;stroke-width:4;stroke-linecap:butt;stroke-linejoin:round;stroke-miterlimit:4;stroke-dasharray:none;stroke-dashoffset:18;stroke-opacity:1"
           id="circle4599"
           cx="-3.6737984e-07"
           cy="1122.5197"
           r="22" />
        <circle
           id="circle4601"
           style="opacity:1;fill:none;fill-opacity:1;stroke:#000000;stroke-width:4;stroke-linecap:butt;stroke-linejoin:round;stroke-miterlimit:4;stroke-dasharray:none;stroke-dashoffset:18;stroke-opacity:1"
           cx="-2.1045736e-07"
           cy="1122.5197"
           r="14" />
        <circle
           style="opacity:1;fill:none;fill-opacity:1;stroke:#000000;stroke-width:4;stroke-linecap:butt;stroke-linejoin:round;stroke-miterlimit:4;stroke-dasharray:none;stroke-dashoffset:18;stroke-opacity:1"
           id="circle4603"
           cx="-5.353488e-08"
           cy="1122.5197"
           r="6" />
        <circle
           id="circle4605"
           style="opacity:1;fill:none;fill-opacity:1;stroke:#000000;stroke-width:4;stroke-linecap:butt;stroke-linejoin:round;stroke-miterlimit:4;stroke-dasharray:none;stroke-dashoffset:18;stroke-opacity:1"
           cx="-5.2430232e-07"
           cy="1122.5197"
           r="30" />
      </g>
    </g>
    <g
       transform="translate(-54.999999,136.00005)"
       id="g4239" />
    <g
       id="g4456">
      <path
         inkscape:connector-curvature="0"
         id="circle4273"
         d="m 8,1086.5197 a 36,36 0 0 0 -36,36 36,36 0 0 0 36,36 36,36 0 0 0 26.826172,-12.0469 A 32,32 0 0 1 24,1122.5197 32,32 0 0 1 34.828125,1098.5783 36,36 0 0 0 8,1086.5197 Z"
         style="opacity:1;fill:#ffffff;fill-opacity:1;stroke:none;stroke-width:3.99999976;stroke-linecap:butt;stroke-linejoin:round;stroke-miterlimit:4;stroke-dasharray:none;stroke-dashoffset:18;stroke-opacity:1" />
      <path
         inkscape:connector-curvature="0"
         id="circle4342"
         d="m 8,1090.5197 c -17.649423,0 -32,14.3506 -32,32 0,17.6495 14.350577,32 32,32 8.121505,0 15.539852,-3.0425 21.1875,-8.043 a 36,36 0 0 1 -2.482422,-3.1093 c -4.955143,4.4473 -11.507605,7.1523 -18.705078,7.1523 -15.487662,0 -28,-12.5123 -28,-28 0,-15.4876 12.512338,-28 28,-28 7.190984,0 13.737849,2.7004 18.691406,7.1406 a 36,36 0 0 1 2.490235,-3.1015 C 23.534727,1093.5614 16.118665,1090.5197 8,1090.5197 Z m 0,8 c -13.231145,0 -24,10.7689 -24,24 0,13.2312 10.768855,24 24,24 6.396705,0 12.212495,-2.5218 16.519531,-6.6172 a 36,36 0 0 1 -1.83789,-3.8144 c -3.65028,3.9491 -8.862649,6.4316 -14.681641,6.4316 -11.069384,0 -20,-8.9306 -20,-20 0,-11.0694 8.930616,-20 20,-20 5.817522,0 11.02758,2.4823 14.677734,6.4297 a 36,36 0 0 1 1.81836,-3.8359 C 20.191446,1101.0315 14.384827,1098.5197 8,1098.5197 Z m 0,8 c -8.812867,0 -16,7.1872 -16,16 0,8.8129 7.187133,16 16,16 5.459709,0 10.290224,-2.7625 13.179688,-6.957 A 36,36 0 0 1 20,1122.5197 c 0,6.6511 -5.348894,12 -12,12 -6.651106,0 -12,-5.3489 -12,-12 0,-6.6511 5.348894,-12 12,-12 6.651106,0 12,5.3489 12,12 a 36,36 0 0 1 1.195312,-9.0254 C 18.307401,1109.289 13.46809,1106.5197 8,1106.5197 Z m 0,8 c -4.394589,0 -8,3.6054 -8,8 0,4.3946 3.605411,8 8,8 4.394589,0 8,-3.6054 8,-8 0,-4.3946 -3.605411,-8 -8,-8 z m 0,4 c 2.232828,0 4,1.7672 4,4 0,2.2329 -1.767172,4 -4,4 -2.232828,0 -4,-1.7671 -4,-4 0,-2.2328 1.767172,-4 4,-4 z"
         style="color:#000000;font-style:normal;font-variant:normal;font-weight:normal;font-stretch:normal;font-size:medium;line-height:normal;font-family:sans-serif;text-indent:0;text-align:start;text-decoration:none;text-decoration-line:none;text-decoration-style:solid;text-decoration-color:#000000;letter-spacing:normal;word-spacing:normal;text-transform:none;direction:ltr;block-progression:tb;writing-mode:lr-tb;baseline-shift:baseline;text-anchor:start;white-space:normal;shape-padding:0;clip-rule:nonzero;display:inline;overflow:visible;visibility:visible;opacity:1;isolation:auto;mix-blend-mode:normal;color-interpolation:sRGB;color-interpolation-filters:linearRGB;solid-color:#000000;solid-opacity:1;fill:#fdf510;fill-opacity:1;fill-rule:nonzero;stroke:none;stroke-width:4;stroke-linecap:butt;stroke-linejoin:round;stroke-miterlimit:4;stroke-dasharray:none;stroke-dashoffset:18;stroke-opacity:1;color-rendering:auto;image-rendering:auto;shape-rendering:auto;text-rendering:auto;enable-background:accumulate" />
    </g>
  </g>
  <g
     inkscape:groupmode="layer"
     id="layer2"
     inkscape:label="Laag 2"
     style="display:inline" />
</svg>
