<?xml version="1.0" encoding="UTF-8" standalone="no"?>
<svg
   xmlns:dc="http://purl.org/dc/elements/1.1/"
   xmlns:cc="http://creativecommons.org/ns#"
   xmlns:rdf="http://www.w3.org/1999/02/22-rdf-syntax-ns#"
   xmlns:svg="http://www.w3.org/2000/svg"
   xmlns="http://www.w3.org/2000/svg"
   xmlns:sodipodi="http://sodipodi.sourceforge.net/DTD/sodipodi-0.dtd"
   xmlns:inkscape="http://www.inkscape.org/namespaces/inkscape"
   version="1.1"
   x="0px"
   y="0px"
   width="241.90564"
   height="578.29437"
   viewBox="0 0 241.90564 578.29437"
   xml:space="preserve"
   id="svg4164"
   inkscape:version="0.91+devel+osxmenu r12911"
   sodipodi:docname="monaco_track.svg"><metadata
     id="metadata4173"><rdf:RDF><cc:Work
         rdf:about=""><dc:format>image/svg+xml</dc:format><dc:type
           rdf:resource="http://purl.org/dc/dcmitype/StillImage" /><dc:title></dc:title></cc:Work></rdf:RDF></metadata><defs
     id="defs4171" /><sodipodi:namedview
     pagecolor="#ffffff"
     bordercolor="#666666"
     borderopacity="1"
     objecttolerance="10"
     gridtolerance="10"
     guidetolerance="10"
     inkscape:pageopacity="0"
     inkscape:pageshadow="2"
     inkscape:window-width="640"
     inkscape:window-height="480"
     id="namedview4169"
     showgrid="false"
     fit-margin-top="0"
     fit-margin-left="0"
     fit-margin-right="0"
     fit-margin-bottom="0"
     inkscape:zoom="0.92916667"
     inkscape:cx="126.75282"
     inkscape:cy="289.5461"
     inkscape:current-layer="svg4164" /><g
     id="circuit"
     transform="rotate(-90,267.95054,375.39664)"><path
       style="fill:none;stroke:#4fc3f7;stroke-width:5;stroke-miterlimit:10"
       d="m 108.695,336.223 c -1.13,2.746 -5.256,14.35 -14.439,9.445 -9.182,-4.906 -20.817,-10.934 -23.687,-13.875 -2.87,-2.939 -5.504,-8.158 1.152,-15.201 6.655,-7.045 3.191,-16.41 5.675,-25.584 2.484,-9.174 13.385,-44.809 39.17,-78.807 25.785,-34 47.598,-58.006 59.717,-68.275 12.119,-10.271 24.916,-22.333 30.622,-25.756 5.833,-3.5 11.667,-8.833 17.352,-8.164 4.664,0.549 4.404,5.668 13.444,11.47 9.04,5.799 37.411,22.759 43.977,26.955 6.894,4.406 27.842,19.181 37.371,25.025 9.531,5.847 17.29,16.167 26.431,20.88 9.142,4.712 36.359,14.271 47.043,19.99 10.685,5.718 22.389,17.145 30.112,21.209 7.723,4.064 34.811,18.295 51.969,5.064 17.158,-13.23 14.053,-28.746 14.008,-33.743 -0.045,-4.996 -0.063,-23.721 10.396,-29.161 10.459,-5.441 29.666,-10.564 39.895,-12.834 13.859,-3.075 52.064,-10.05 56.623,-4.26 4.559,5.79 1.966,11.184 -6.08,24.276 -4.329,5.908 -12.602,23.183 -12.348,27.263 0.25,4.016 3.278,10.72 10.848,10.112 6.957,-0.558 7.5,-7.394 7.994,-10.148 0.756,-4.227 5.479,-22.677 11.288,-25.097 8.009,-3.334 14.604,1.473 21.393,6.326 6.79,4.855 18.219,12.621 8.421,21.896 -9.799,9.275 -67.5,59.708 -105.709,65.47 -38.21,5.762 -101.027,-13.289 -121.135,-22.232 -20.108,-8.941 -50.271,-34.641 -52.425,-36.011 -2.153,-1.367 -4.868,-2.604 -7.147,0.176 -2.28,2.78 -5.285,5.876 -11.451,2.003 -6.253,-3.924 -5.252,-9.879 -8.526,-12.049 -3.274,-2.172 -41.255,-31.756 -47.228,-36.176 -5.971,-4.42 -35.803,-28.881 -43.13,-31.356 -7.329,-2.477 -24.232,-2.663 -55.75,24.489 -5.628,5.363 -7.426,6.881 -7.509,10.157 -0.084,3.275 1.577,5.345 4.152,7.957 2.576,2.612 3.517,6.305 0.242,11.143 -3.275,4.838 -13.55,19.414 -20.012,27.635 -6.462,8.225 -18.015,25.514 -20.046,27.635 -2.031,2.119 -5.26,4.365 -11.904,2.693 -6.646,-1.67 -10.226,-0.818 -15.711,9.855 -5.485,10.673 -10.638,23.67 -11.65,30.824 -1.012,7.154 -0.071,20.777 2.472,25.373 2.542,4.597 5.196,10.794 4.12,13.408 z"
       id="path4167"
       inkscape:connector-curvature="0" /></g></svg>