<?xml version="1.0" encoding="UTF-8" standalone="no"?>
<!-- Svg Vector Icons : http://www.onlinewebfonts.com/icon -->

<svg
   xmlns:dc="http://purl.org/dc/elements/1.1/"
   xmlns:cc="http://creativecommons.org/ns#"
   xmlns:rdf="http://www.w3.org/1999/02/22-rdf-syntax-ns#"
   xmlns:svg="http://www.w3.org/2000/svg"
   xmlns="http://www.w3.org/2000/svg"
   xmlns:sodipodi="http://sodipodi.sourceforge.net/DTD/sodipodi-0.dtd"
   xmlns:inkscape="http://www.inkscape.org/namespaces/inkscape"
   version="1.1"
   x="0px"
   y="0px"
   viewBox="0 0 64 64"
   enable-background="new 0 0 1000 1000"
   xml:space="preserve"
   id="svg4141"
   inkscape:version="0.91+devel+osxmenu r12911"
   sodipodi:docname="brightness.svg"
   width="64"
   height="64"><defs
     id="defs4153" /><sodipodi:namedview
     pagecolor="#ffffff"
     bordercolor="#666666"
     borderopacity="1"
     objecttolerance="10"
     gridtolerance="10"
     guidetolerance="10"
     inkscape:pageopacity="0"
     inkscape:pageshadow="2"
     inkscape:window-width="640"
     inkscape:window-height="480"
     id="namedview4151"
     showgrid="true"
     inkscape:snap-bbox="true"
     inkscape:bbox-paths="true"
     inkscape:bbox-nodes="true"
     inkscape:snap-bbox-edge-midpoints="true"
     inkscape:snap-bbox-midpoints="true"
     inkscape:zoom="3.2427475"
     inkscape:cx="35.169628"
     inkscape:cy="32"
     inkscape:current-layer="g4145"><inkscape:grid
       type="xygrid"
       id="grid4155" /></sodipodi:namedview><metadata
     id="metadata4143"> Svg Vector Icons : http://www.onlinewebfonts.com/icon <rdf:RDF><cc:Work
     rdf:about=""><dc:format>image/svg+xml</dc:format><dc:type
       rdf:resource="http://purl.org/dc/dcmitype/StillImage" /><dc:title></dc:title></cc:Work></rdf:RDF></metadata><g
     id="g4145"
     transform="translate(0,-936)"><path
       id="path4211"
       style="fill:none;fill-rule:evenodd;stroke:#ffffff;stroke-width:2;stroke-linecap:round;stroke-linejoin:miter;stroke-miterlimit:4;stroke-dasharray:none;stroke-opacity:1"
       d="m 42.004302,985.31724 5.499999,9.52628 0,0 m -30.999999,-53.69357 5.499999,9.52627 0,0 m -7.327714,27.30823 -9.5262795,5.5 0,0 m 53.6935775,-31.00001 -9.52628,5.5 0,0 m 0.01366,20.01453 9.526279,5.5 0,0 m -53.6935747,-31 9.5262787,5.5 0,0 m 7.308124,27.31347 -5.5,9.52628 0,0 m 31,-53.69358 -5.5,9.52628 0,0 m 10.015871,17.32848 10.999999,0 0,0 m -61.9999995,0 10.9999995,0 0,0 M 32,988 l 0,11 0,0 m 0,-62 0,11 0,0 m 20,20 a 20,20 0 0 1 -20,20 20,20 0 0 1 -20,-20 20,20 0 0 1 20,-20 20,20 0 0 1 20,20 z" /></g></svg>