<?xml version="1.0" encoding="UTF-8" standalone="no"?>
<!-- Created with Inkscape (http://www.inkscape.org/) -->

<svg
   xmlns:dc="http://purl.org/dc/elements/1.1/"
   xmlns:cc="http://creativecommons.org/ns#"
   xmlns:rdf="http://www.w3.org/1999/02/22-rdf-syntax-ns#"
   xmlns:svg="http://www.w3.org/2000/svg"
   xmlns="http://www.w3.org/2000/svg"
   xmlns:sodipodi="http://sodipodi.sourceforge.net/DTD/sodipodi-0.dtd"
   xmlns:inkscape="http://www.inkscape.org/namespaces/inkscape"
   width="360"
   height="338"
   viewBox="0 0 95.249998 89.42917"
   id="svg2"
   version="1.1"
   inkscape:version="0.91+devel+osxmenu r12911"
   sodipodi:docname="chef_mask.svg"
   inkscape:export-filename="/Users/wouterraateland/repositories/wr/src/media/chef_mask.png"
   inkscape:export-xdpi="96"
   inkscape:export-ydpi="96">
  <defs
     id="defs4" />
  <sodipodi:namedview
     id="base"
     pagecolor="#ffffff"
     bordercolor="#666666"
     borderopacity="1.0"
     inkscape:pageopacity="0.0"
     inkscape:pageshadow="2"
     inkscape:zoom="1.6944444"
     inkscape:cx="180"
     inkscape:cy="169"
     inkscape:document-units="px"
     inkscape:current-layer="layer1"
     showgrid="false"
     units="px" />
  <metadata
     id="metadata7">
    <rdf:RDF>
      <cc:Work
         rdf:about="">
        <dc:format>image/svg+xml</dc:format>
        <dc:type
           rdf:resource="http://purl.org/dc/dcmitype/StillImage" />
        <dc:title />
      </cc:Work>
    </rdf:RDF>
  </metadata>
  <g
     inkscape:label="Laag 1"
     inkscape:groupmode="layer"
     id="layer1"
     transform="translate(0,-207.57082)">
    <path
       style="fill:#000000;stroke-width:3.77952743"
       d="M 116.7832 7.4609375 C 114.3592 7.4269218 111.56372 9.1492432 108.69727 12.478516 C 107.59726 13.756109 103.97056 16.507236 100.63672 18.591797 C 84.900063 28.43157 81.323416 31.787184 79.189453 38.716797 C 78.738234 40.182044 76.080038 46.935041 73.283203 53.722656 C 66.317511 70.627803 66.619759 75.312788 75.033203 80.904297 C 78.970088 83.520637 80.478137 83.956792 84.697266 83.693359 C 89.191169 83.41254 89.677459 83.583392 89.486328 85.380859 C 89.156791 88.480072 92.061681 96.446378 94.240234 98.417969 C 95.504653 99.562259 96.197266 101.48599 96.197266 103.8457 C 96.197266 107.92442 92.414589 118.36042 89.394531 122.61133 C 88.312392 124.13448 86.753299 126.99691 85.929688 128.97266 C 84.207844 133.10319 79.655497 136.16611 65.197266 142.92383 C 42.792933 153.39554 38.817362 156.72284 31.638672 171.00586 C 28.515426 177.22001 26.879033 182.11286 25.787109 188.50586 C 23.026926 204.66614 22.025277 226.09339 22.755859 253.38086 C 23.386935 276.95166 23.664943 279.95059 25.722656 285.47656 C 26.971033 288.82908 28.528709 294.16026 29.185547 297.32422 C 30.365071 303.00598 33.314462 307.37494 37.9375 310.35352 C 47.533128 314.38971 61.645286 314.75502 71.414062 322.58008 C 83.382493 332.16711 98.550317 337.91824 115.06055 337.99219 C 115.27922 337.99238 115.49414 337.99398 115.71289 337.99414 C 141.55089 337.87439 164.10175 323.83719 176.24414 302.98828 C 182.69385 303.53556 188.59156 303.0966 194.01562 302.08789 C 194.4452 301.86095 194.79973 301.67227 195.27539 301.42188 C 206.84701 295.33041 214.01283 291.12519 216.69727 288.85547 C 217.79727 287.9254 221.34958 286.65504 224.58984 286.0293 C 231.37072 284.71984 233.19727 283.52771 233.19727 280.41406 C 233.19727 276.34321 230.41046 275.16754 218.19727 274.08398 C 211.87226 273.52288 205.12227 272.37792 203.19727 271.54102 L 199.69727 270.01953 L 203.69727 268.35547 C 205.89727 267.43961 208.59726 265.87114 209.69727 264.87305 C 212.07395 262.71652 217.31601 261.284 226.19727 260.36523 C 229.77226 259.9956 237.42227 258.80528 243.19727 257.7207 C 253.02892 255.87433 256.78516 254.48998 276.73047 245.33789 C 279.49824 244.06789 283.00169 242.71785 284.51562 242.33789 C 288.37283 241.3698 290.18508 237.22611 290.27148 229.17969 C 290.31162 225.43988 290.6707 220.09166 291.07031 217.29492 C 292.01328 210.69519 295.17182 207.8363 309.69727 200.44336 C 317.67635 196.38226 322.20774 193.32191 326.19531 189.29297 C 329.21881 186.23809 333.1717 182.82369 334.97852 181.70703 C 337.66562 180.04631 347.4763 168.35413 350.60156 163.08789 C 352.08357 160.59061 349.2648 158.84754 344.83203 159.52344 C 339.82436 160.28705 337.13575 161.58177 335.36328 164.08008 C 334.4814 165.32184 333.36488 165.75007 332.07227 165.33984 C 330.62203 164.87957 329.15154 165.77313 326.39648 168.78711 C 323.31817 172.15474 321.82224 172.97154 317.68945 173.53711 L 312.69727 174.21875 L 315.94727 170.51367 C 319.71179 166.22334 320.10705 162.63033 317.04883 160.48828 C 315.15701 159.16303 314.56164 159.15716 312.07812 160.44141 C 310.52644 161.2438 308.79385 162.7662 308.22656 163.82617 C 307.65928 164.88618 303.63195 168.51021 299.27734 171.87891 C 293.74585 176.15801 290.76122 179.27556 289.375 182.22461 C 287.26885 186.70528 279.1826 194.87891 276.85547 194.87891 C 276.09236 194.87891 274.22674 195.85451 272.71094 197.04688 C 271.19514 198.2392 266.99262 200.0368 263.37109 201.04102 C 258.51364 202.38796 255.72562 203.88932 252.74219 206.76758 C 248.56332 210.79912 241.48545 214.87891 238.66992 214.87891 C 237.78607 214.87891 235.53864 213.26046 233.67383 211.2832 C 230.56114 207.98258 229.9592 207.74363 226.32617 208.35742 L 222.36719 209.02539 L 221.875 202.20312 C 220.9576 189.48566 220.80052 189.16569 210.43164 179.04102 C 203.82091 172.586 201.2541 169.46164 202.12109 168.92578 C 203.79383 167.89197 197.72046 160.87891 195.15234 160.87891 C 193.04392 160.87891 187.04935 157.60179 182.78906 154.11914 C 180.95095 152.6167 179.10892 151.93498 177.7832 152.26758 C 176.22599 152.65838 175.2664 152.06311 174.05664 149.95508 C 172.93296 147.99717 170.86224 146.5971 167.38867 145.44336 C 164.61806 144.52312 161.82142 143.13185 161.17383 142.35156 C 160.52623 141.57124 158.50479 140.65259 156.68164 140.31055 C 152.69367 139.56239 149.85488 136.65947 148.27344 131.7168 C 147.12537 128.12859 147.19191 127.96148 151.61719 123.4082 C 154.51911 120.42234 156.89842 116.66119 158.27539 112.88477 C 159.45396 109.6524 161.0659 106.75895 161.85742 106.45508 C 164.01958 105.6254 168.19727 95.367714 168.19727 90.888672 C 168.19727 90.557963 168.18636 90.236811 168.16406 89.923828 C 168.20662 89.376137 168.15537 88.93831 167.97656 88.554688 C 167.69147 87.109925 167.13611 85.938501 166.33203 85.167969 C 163.52734 82.480347 162.57727 74.534273 162.98242 57.128906 C 163.18096 48.598815 163.35569 47.878906 165.21094 47.878906 C 166.9966 47.878906 167.14935 48.327722 166.58398 51.863281 C 165.74182 57.129864 168.17974 58.351514 171.96875 54.5625 C 174.40308 52.128144 174.58114 51.297271 174.79688 41.328125 C 175.04254 29.975785 175.15967 30.206314 170.19727 32.277344 C 168.94941 32.798163 168.75438 31.99233 169.03516 27.478516 L 169.37305 22.052734 L 163.76562 18.464844 C 160.68181 16.492119 157.72969 14.878906 157.20508 14.878906 C 156.25696 14.878906 148.99888 11.783683 144.17578 9.3222656 C 142.45118 8.4422404 138.36253 8.1401013 131.25977 8.3691406 C 125.54427 8.5535816 119.75692 8.2822108 118.39844 7.765625 C 117.88215 7.5694675 117.34258 7.4684966 116.7832 7.4609375 z M 188.26172 249.48438 L 191.35547 252.57617 C 193.0564 254.27711 194.13965 256.16704 193.76367 256.77539 C 193.09218 257.86185 185.19727 258.39113 185.19727 257.34961 C 185.19727 257.05707 185.88786 255.16703 186.73047 253.15039 L 188.26172 249.48438 z "
       transform="matrix(0.26458334,0,0,0.26458334,0,207.57082)"
       id="path4216" />
  </g>
</svg>
