<?xml version="1.0" encoding="UTF-8" standalone="no"?>
<svg
   xmlns:dc="http://purl.org/dc/elements/1.1/"
   xmlns:cc="http://creativecommons.org/ns#"
   xmlns:rdf="http://www.w3.org/1999/02/22-rdf-syntax-ns#"
   xmlns:svg="http://www.w3.org/2000/svg"
   xmlns="http://www.w3.org/2000/svg"
   xmlns:sodipodi="http://sodipodi.sourceforge.net/DTD/sodipodi-0.dtd"
   xmlns:inkscape="http://www.inkscape.org/namespaces/inkscape"
   width="350"
   height="621.25"
   viewBox="0 0 92.602344 164.37887"
   id="svg4141"
   version="1.1"
   inkscape:version="0.91+devel+osxmenu r12911"
   sodipodi:docname="plane_background.svg">
  <metadata
     id="metadata4149">
    <rdf:RDF>
      <cc:Work
         rdf:about="">
        <dc:format>image/svg+xml</dc:format>
        <dc:type
           rdf:resource="http://purl.org/dc/dcmitype/StillImage" />
        <dc:title></dc:title>
      </cc:Work>
    </rdf:RDF>
  </metadata>
  <defs
     id="defs4147" />
  <sodipodi:namedview
     pagecolor="#ffffff"
     bordercolor="#666666"
     borderopacity="1"
     objecttolerance="10"
     gridtolerance="10"
     guidetolerance="10"
     inkscape:pageopacity="0"
     inkscape:pageshadow="2"
     inkscape:window-width="640"
     inkscape:window-height="480"
     id="namedview4145"
     showgrid="false"
     inkscape:snap-bbox="true"
     inkscape:bbox-nodes="true"
     inkscape:bbox-paths="true"
     inkscape:snap-bbox-midpoints="true"
     inkscape:snap-bbox-edge-midpoints="true"
     inkscape:snap-object-midpoints="true"
     inkscape:snap-center="true"
     inkscape:snap-page="true"
     inkscape:zoom="1.0849095"
     inkscape:cx="175"
     inkscape:cy="310.625"
     inkscape:current-layer="g4196"
     inkscape:snap-global="false" />
  <g
     id="g4196">
    <path
       style="fill:#ccf7f5;stroke-width:1;fill-opacity:1"
       d="M -0.00273505,164.37887 -0.00273345,0 92.605077,0 l 2e-6,164.37887 z"
       id="path4214"
       inkscape:connector-curvature="0"
       sodipodi:nodetypes="ccccc" />
    <path
       style="fill:#f4fdfe;fill-opacity:0.75294119;stroke-width:1"
       d="m 27.467586,95.348259 c 1.546583,-0.822341 1.549542,-0.82258 3.279128,-0.278563 3.553475,1.117704 7.232289,-0.127492 9.169397,-3.103627 0.527291,-0.810114 1.359664,-1.716684 1.849715,-2.014593 1.080138,-0.656635 2.330582,-2.521743 2.614569,-3.899769 0.517825,-2.51276 -1.288997,-5.415338 -3.887162,-6.24455 l -1.521679,-0.48566 -0.411741,-2.04101 c -0.554315,-2.747779 -1.789468,-4.646274 -4.024494,-6.185897 -1.63091,-1.123488 -2.097716,-1.283215 -4.076889,-1.395042 -2.005443,-0.11329 -2.44784,-0.02163 -4.305667,0.893043 -1.571017,0.773411 -2.391497,1.444413 -3.400824,2.781244 -1.245001,1.649001 -1.39299,1.746202 -2.309295,1.516773 -1.681867,-0.421114 -3.325435,-0.223489 -4.897164,0.588853 -1.35666,0.701176 -1.614533,0.739303 -2.473287,0.365704 -1.384753,-0.602442 -2.644525,-0.537703 -4.2012525,0.215901 -1.523986,0.737744 -2.669515,2.308063 -2.669515,3.659445 0,0.639988 -0.351536,1.191245 -1.250182,1.960454 -1.734114,1.484343 -2.584656,3.373321 -2.584656,5.740324 0,4.895014 4.176217,8.337033 9.0443075,7.45428 1.555436,-0.282049 2.114323,-0.254163 3.141321,0.156759 1.603699,0.641669 3.48439,0.63662 4.846679,-0.01304 1.032637,-0.492423 1.138076,-0.480296 2.647291,0.304698 2.017387,1.049293 3.481226,1.055841 5.4214,0.02416 z"
       id="path4261"
       inkscape:connector-curvature="0"
       sodipodi:nodetypes="cssssscssccsssssssssscscc" />
    <path
       style="fill:#f4fdfe;fill-opacity:0.75294119;stroke-width:1"
       d="m 42.102095,53.427291 c 1.33179,0.786703 1.495968,0.777254 3.812497,-0.21928 3.851488,-1.656869 7.772602,-1.205748 9.699393,1.115878 0.53036,0.639053 1.225171,0.718566 3.940904,0.450956 3.041884,-0.299739 3.445911,-0.226343 5.221304,0.948549 1.058354,0.7004 1.924276,1.446236 1.924276,1.657452 0,0.211179 0.442692,0.859152 0.983756,1.439918 0.952063,1.021911 1.033506,1.029684 2.528692,0.241033 0.849705,-0.448189 2.636291,-0.820561 3.970174,-0.827496 3.088905,-0.01639 5.498163,1.413979 7.16011,4.249891 0.73038,1.246287 1.698681,2.213168 2.390271,2.386739 0.6394,0.160555 1.83692,1.059847 2.661176,1.998622 1.275176,1.452352 1.498625,2.088711 1.498625,4.267949 0,1.868375 -0.297046,3.001892 -1.098184,4.19071 -1.581195,2.346328 -2.982287,2.937852 -6.182287,2.610006 -2.608459,-0.267227 -2.765374,-0.216477 -4.407132,1.425283 -2.046116,2.046115 -4.287937,2.259952 -7.103425,0.677554 l -1.823467,-1.02484 -1.943901,1.562155 c -1.325235,1.064998 -2.635817,1.640158 -4.118005,1.807211 -1.862969,0.209997 -2.347238,0.50666 -3.383676,2.07282 -2.522337,3.811494 -6.21904,5.415882 -10.589691,4.595939 -2.444645,-0.45862 -5.977844,-4.107356 -6.373553,-6.581983 -0.166017,-1.038457 -0.436793,-1.887307 -0.601609,-1.886324 -0.164741,9.65e-4 -1.031467,0.447935 -1.925862,0.993204 -6.070291,3.70078 -13.471033,-0.606761 -13.949386,-8.119164 -0.241815,-3.797768 0.892174,-7.190291 2.478941,-7.416105 0.926724,-0.131976 1.090046,-0.531507 1.340964,-3.280953 0.157096,-1.72191 0.618975,-3.889351 1.026298,-4.816531 0.895068,-2.037449 3.45769,-4.504394 5.431173,-5.228385 1.884913,-0.691516 5.672271,-0.330085 7.431624,0.709192 z"
       id="path4257"
       inkscape:connector-curvature="0"
       sodipodi:nodetypes="sssssssscscsssssscscssccsscccss" />
    <path
       style="fill:#98d4d2;stroke-width:1;fill-opacity:1"
       d="m 0.25450985,151.45927 c -0.2040406,-0.0823 -0.2556928,-10.12824 -0.249744,-31.86535 l 0.0075,-27.405054 0.745922,-0.565928 c 1.50147355,-1.13918 3.00106525,-0.58176 3.96362585,1.473348 0.2698777,0.5762 0.6010957,1.04764 0.7360399,1.04764 0.2917831,0 1.8404621,-1.64168 2.5616526,-2.715478 0.8347981,-1.24295 1.8467029,-1.4756 3.8109798,-0.87617 1.387726,0.42349 1.810039,0.27143 2.539707,-0.91443 0.471099,-0.765628 0.810245,-1.069388 1.40714,-1.260328 1.333482,-0.42656 2.020402,-0.96418 3.213726,-2.515238 1.439526,-1.871069 3.59525,-3.97752 4.22364,-4.127102 1.370393,-0.326206 2.492004,0.923127 3.452394,3.845529 0.301681,0.917996 0.689766,1.831151 0.862409,2.029221 0.779935,0.89484 2.39598,-0.033 3.835915,-2.202357 0.905428,-1.364084 1.431774,-1.759196 2.3435,-1.759196 0.546995,0 0.875862,0.188306 1.562213,0.894509 0.734282,0.755519 1.101159,0.951315 2.361133,1.260088 1.886631,0.462343 3.065794,0.340274 4.172392,-0.431934 2.180838,-1.521832 1.507334,-1.411476 5.511665,-0.903107 1.192043,0.151338 2.244718,0.450272 3.361958,0.954721 1.285254,0.580307 1.776499,0.706262 2.341302,0.600304 1.01542,-0.190494 2.176294,-1.33178 3.377609,-3.320617 1.263627,-2.092 2.917543,-4.106916 3.705623,-4.514448 0.320968,-0.16598 0.925535,-0.30178 1.343482,-0.30178 0.784016,0 1.484141,0.581372 3.296186,2.737098 0.352014,0.418781 0.825718,0.761419 1.052671,0.761419 1.262892,0 2.76149,-2.331383 4.164756,-6.479153 1.094511,-3.235156 1.761003,-4.427988 2.474125,-4.427988 0.204533,0 0.739506,0.435538 1.188829,0.967862 0.796017,0.943067 0.829692,0.959512 1.314393,0.641924 0.329799,-0.216093 0.729828,-0.941066 1.186987,-2.151184 0.824745,-2.183129 1.933968,-4.458627 2.616035,-5.366623 0.901506,-1.200123 2.331097,-1.088338 3.602999,0.281731 0.904898,0.97474 1.374376,2.289976 1.934859,5.420495 0.363947,2.032775 0.456082,2.190667 1.606898,2.753709 1.309567,0.640711 2.011821,1.752849 2.41605,3.826228 0.230789,1.183774 0.373954,1.441687 1.285283,2.31546 0.56406,0.540815 1.470225,1.19155 2.013701,1.446073 l 0.98814,0.462774 0.0084,32.956642 c 0.0076,29.86725 -0.02208,37.32486 -0.317089,37.43807 l -92.02504415,-0.0114 z"
       id="path4212"
       inkscape:connector-curvature="0"
       sodipodi:nodetypes="cscsssssssssscssssssssssssssssssssssssscsccc" />
    <path
       style="fill:#73abb3;stroke-width:1;fill-opacity:1"
       d="m -0.00273405,123.87058 0,-23.16269 1.80070745,0.16508 c 3.9701658,0.36397 4.8406919,0.24897 12.9136446,-1.705958 3.546334,-0.85877 6.633304,-1.02742 7.940614,-0.43381 6.267912,2.162368 16.531524,-1.07518 20.654179,-2.158168 2.089143,-0.67453 4.973037,-1.953058 6.747495,-2.991388 1.550687,-0.90739 3.69278,-1.703468 4.583721,-1.703468 0.391947,0 1.12779,-0.11104 1.635209,-0.24675 0.687038,-0.18376 1.366179,-0.19179 2.660108,-0.0315 1.923838,0.23835 3.638449,0.952818 6.645476,2.769148 2.021617,1.221118 3.295511,1.697268 5.418175,2.025188 4.673301,0.72195 5.563832,0.88979 6.723852,1.267298 1.495093,0.48656 2.820436,1.57147 3.966349,3.246828 1.110347,1.62336 1.681486,2.09594 4.024151,3.32973 2.520437,1.32742 3.049201,1.67787 5.184128,3.43589 l 1.685608,1.38803 0.0122,18.98461 0.0122,23.3411 -92.60781105,0 0,-27.51919 z"
       id="path4208"
       inkscape:connector-curvature="0"
       sodipodi:nodetypes="ccssccssccsssssscccccc" />
    <path
       style="fill:#61899b;stroke-width:1;fill-opacity:1"
       d="m -0.00273405,123.85612 c 0,-19.80442 0.041781,-23.14248 0.2871148,-22.93887 0.1726895,0.14332 1.50545865,0.28605 3.34417095,0.35813 3.350612,0.13136 2.486649,0.26617 10.7743733,-1.681138 3.457235,-0.81232 6.329909,-1.10358 7.268862,-0.73699 6.869116,2.265778 10.810112,4.947378 14.42083,7.221728 2.610201,1.70395 3.562545,2.11264 5.166574,2.21719 1.240212,0.0808 1.669541,0.007 3.086927,-0.52747 2.606296,-0.98364 3.167537,-1.12271 4.53102,-1.12271 1.714642,0 3.353977,0.81385 5.893368,2.92575 l 1.93185,1.60664 1.110979,-0.17562 c 0.704677,-0.11139 2.245999,-0.73803 4.214536,-1.71345 4.825612,-2.39111 7.377867,-3.06308 11.644053,-3.0657 2.252,-10e-4 3.226508,0.0996 5.144879,0.53324 4.429123,1.00114 8.422569,2.36303 12.296259,4.19342 l 1.492015,0.705 0,17.68901 0,22.04551 -92.60781105,0 0,-27.53365 z"
       id="path4206"
       inkscape:connector-curvature="0"
       sodipodi:nodetypes="ssssccccsscsscsscccccs" />
    <path
       style="fill:#516985;stroke-width:1;fill-opacity:1"
       d="m -0.00273405,132.85319 c 0,-12.73646 0.033048,-14.1883 0.3255241,-14.30053 0.5306453,-0.20363 3.41410565,-0.14242 4.73010935,0.1004 0.6716149,0.12392 1.7507887,0.44804 2.3981638,0.72025 l 1.1770457,0.49494 0.8628017,-0.44972 c 0.6689234,-0.34867 1.4217954,-0.48711 3.3504474,-0.61609 3.40646,-0.22783 10.618084,-1.94655 15.322189,-3.65169 2.570809,-0.93186 4.066635,-1.32233 4.363293,-1.13899 1.262468,0.47743 0.738159,-0.19406 3.485833,0.24722 2.509381,0.40733 3.055885,0.30267 6.069703,-1.16244 2.877673,-1.39893 3.400205,-1.53466 5.865162,-1.52351 4.684866,0.0212 9.294418,0.24679 9.560848,0.46791 0.209625,0.17397 0.266995,0.14923 0.244207,-0.10531 -0.02054,-0.2295 0.371714,-0.48512 1.264467,-0.824 0.711839,-0.27022 2.054653,-0.90415 2.98403,-1.40874 2.148791,-1.16665 4.281362,-2.00608 6.628859,-2.60927 1.53212,-0.39368 2.38555,-0.47602 4.939083,-0.47651 2.651866,-4.1e-4 3.434976,0.0803 5.556469,0.57338 3.194154,0.74237 6.655025,1.89698 10.442234,3.48371 l 3.033612,1.271 0.0019,17.5431 0.0019,21.8996 -92.60781095,-0.002 0,-18.53211 z"
       id="path4204"
       inkscape:connector-curvature="0"
       sodipodi:nodetypes="ccsscsssccsscccsscsscccccc" />
    <path
       style="fill:#414463;stroke-width:1;fill-opacity:1"
       d="m -0.00273405,132.81216 0,-14.1182 0.9775269,0.0671 c 0.53763975,0.0369 1.76469325,0.10566 2.72678555,0.15274 1.4721637,0.0721 2.2042871,0.25361 4.621786,1.14616 3.5013066,1.29271 3.7484686,1.34935 7.6764756,1.75911 1.727208,0.18017 3.718276,0.50798 4.424595,0.72845 1.402264,0.43769 2.621886,1.10458 2.621886,1.43365 0,0.11485 0.176867,0.20882 0.393038,0.20882 0.216171,0 1.377813,0.68941 2.581428,1.53204 3.06364,2.14478 3.943858,2.44495 6.800803,2.3192 2.716558,-0.11956 4.057737,-0.54278 7.511522,-2.37029 2.967577,-1.57024 5.02936,-2.17088 7.511523,-2.18827 1.664815,-0.0117 2.001308,0.0547 3.326748,0.65566 2.388666,1.0831 3.758639,1.35171 6.240153,1.22348 1.46827,-0.0759 2.722098,-0.2821 3.902111,-0.64181 1.885993,-0.57492 3.256232,-0.66624 4.353007,-0.29011 0.384749,0.13194 1.492198,0.77592 2.460997,1.43105 2.925662,1.97843 4.621126,2.52898 7.602225,2.46858 1.775775,-0.036 2.0685,0.0148 3.192203,0.55382 0.680431,0.32639 1.791725,1.05024 2.469542,1.60857 3.880397,3.19635 5.743211,3.97632 9.515646,3.98426 l 1.69781,0.004 0,6.22531 0,10.5818 -92.60781105,0 0,-18.47471 z"
       id="path4202"
       inkscape:connector-curvature="0"
       sodipodi:nodetypes="ccscsssssssscccscscssccccccc" />
    <path
       style="fill:#363547;stroke-width:1;fill-opacity:1"
       d="m 86.302214,139.67041 c 0.212012,-0.0471 0.655182,0.11369 0.98482,0.35741 0.55723,0.41197 1.407935,0.43244 1.407935,0.0339 0,-0.0839 0.132872,-0.33236 0.295273,-0.55207 0.281215,-0.38046 0.310831,-0.36251 0.622129,0.377 0.394267,0.93661 1.122794,1.70609 1.549257,1.63634 0.171365,-0.028 0.569715,0.17224 0.885217,0.44504 0.563023,0.48681 0.558234,0.53188 0.558234,2.48122 l 0,19.92962 -92.60781305,0 5.917e-4,-24.24105 0,4e-5 5.917e-4,-6.58418 0.616202,-0.41159 c 0.3389111,-0.22637 0.61646825,-0.48104 0.61679365,-0.56593 3.255e-4,-0.0849 0.1395034,-0.15435 0.3092844,-0.15435 0.169781,0 0.3086927,0.0926 0.3086927,0.2058 0,0.33869 0.5819508,0.23256 0.7930384,-0.14463 0.1657536,-0.29618 0.2471949,-0.30802 0.5262039,-0.0765 0.2873473,0.23848 0.3591661,0.19058 0.5545358,-0.36986 0.2565459,-0.73593 0.4910723,-0.81238 0.7883143,-0.25698 0.4763662,0.8901 3.0586584,1.29636 3.5657994,0.561 0.1017638,-0.14756 0.3576131,0.0131 0.7277644,0.45694 l 0.5708292,0.68449 0.6513945,-0.37385 c 0.643884,-0.36954 0.656523,-0.36834 1.096286,0.10369 0.321032,0.34459 0.581629,0.44322 0.936037,0.35427 0.379509,-0.0953 0.491144,-0.0402 0.491144,0.24205 0.651685,-0.20353 1.303369,-0.46374 1.955054,-0.78224 l 0.823181,0.1334 c 0.452749,0.0734 0.978812,0.21507 1.16903,0.31489 0.23311,0.12233 0.446151,0.0812 0.653543,-0.12621 0.169232,-0.16923 0.452199,-0.25224 0.628817,-0.18446 0.218661,0.0839 0.386075,-0.0476 0.524685,-0.41218 0.256538,-0.67475 0.567266,-0.68224 0.86858,-0.0209 0.290644,0.6379 0.641756,0.6552 1.04413,0.0515 0.307866,-0.46194 0.309437,-0.46109 0.663197,0.36014 0.371577,0.86259 0.425911,0.83826 0.804019,-0.36014 0.174919,-0.5544 0.490589,-0.42772 0.641033,0.25725 0.07458,0.33956 0.198129,0.61738 0.274551,0.61738 0.07642,0 0.462648,-0.41295 0.858277,-0.91768 0.395631,-0.50473 0.805557,-0.89272 0.910946,-0.86221 0.105388,0.0305 0.296985,0.36843 0.425768,0.75092 0.292441,0.86856 0.630673,1.00243 0.802541,0.31765 0.07226,-0.2879 0.202875,-0.52345 0.29026,-0.52345 0.08738,0 0.416786,0.50934 0.732003,1.13187 0.315214,0.62254 0.653636,1.13188 0.752045,1.13188 0.09841,0 0.300988,-0.25467 0.450173,-0.56594 0.412243,-0.86012 1.025522,-0.74475 1.303263,0.24515 0.305874,1.09019 0.560253,1.11236 0.923183,0.0805 0.449267,-1.27736 0.753978,-1.21668 1.156268,0.23029 0.377752,1.35869 0.674617,1.49815 0.947491,0.44509 0.184347,-0.71142 0.619571,-0.77569 0.740206,-0.10932 0.107582,0.59427 0.403429,0.82519 0.690019,0.5386 0.135825,-0.13583 0.380287,-0.24696 0.54325,-0.24696 0.162961,0 0.412603,-0.15906 0.554756,-0.35346 0.231669,-0.31683 0.291597,-0.27417 0.578123,0.41159 0.175813,0.42078 0.369448,0.76505 0.430297,0.76505 0.06085,0 0.246068,-0.32412 0.411591,-0.72028 0.38262,-0.91574 0.614385,-0.90867 0.988833,0.0301 0.241509,0.6055 0.422596,0.76392 0.937716,0.82031 0.351123,0.0384 0.695779,-0.0229 0.765897,-0.13639 0.07012,-0.11346 0.22775,-0.14432 0.350286,-0.0686 0.122539,0.0757 0.344765,-0.0291 0.493837,-0.23298 0.223631,-0.30583 0.326158,-0.32492 0.586164,-0.10913 0.342523,0.28426 0.684853,0.108 1.364566,-0.70261 0.329788,-0.3933 0.338376,-0.39254 0.575989,0.0515 0.348663,0.65148 0.549195,0.56175 0.94276,-0.42187 0.313004,-0.78228 0.376229,-0.83552 0.610969,-0.51449 0.366221,0.50084 0.514381,0.4504 0.761786,-0.2593 0.263284,-0.75525 0.447581,-0.77739 0.760186,-0.0913 0.272615,0.59833 0.647983,0.4959 0.652694,-0.17809 0.0016,-0.24799 0.08728,-0.58385 0.190111,-0.74636 0.15659,-0.24746 0.240696,-0.25086 0.517769,-0.0209 0.280955,0.23318 0.374145,0.21567 0.618373,-0.11613 0.269202,-0.36573 0.296474,-0.36768 0.427175,-0.0305 0.07856,0.20264 0.35326,0.36014 0.628163,0.36014 0.353179,0 0.525372,0.14671 0.621444,0.52949 0.135297,0.53907 1.049135,1.06658 1.324164,0.76437 0.08108,-0.0891 0.258398,-0.50927 0.394038,-0.93372 0.300539,-0.94047 0.515379,-0.97438 0.810458,-0.12791 0.185998,0.53355 0.276021,0.60101 0.525605,0.39387 0.402821,-0.33431 0.651741,-0.14672 0.801961,0.60439 0.151253,0.75627 0.401702,0.79383 0.714564,0.10718 0.128928,-0.28297 0.317774,-0.51449 0.419655,-0.51449 0.205674,0 0.55932,0.80318 0.770215,1.74926 0.234409,1.05156 1.127743,1.75134 1.379247,1.08042 0.06695,-0.17859 0.198037,-0.1314 0.428742,0.15435 0.331999,0.4112 0.332602,0.4112 0.649127,10e-4 0.27188,-0.35235 0.344408,-0.36695 0.511335,-0.1029 0.106985,0.16923 0.195937,0.45205 0.19767,0.6285 0.0016,0.17644 0.132041,0.49707 0.289575,0.71251 0.253644,0.34688 0.327609,0.35752 0.64633,0.093 0.19795,-0.16428 0.62785,-0.31217 0.955334,-0.32864 0.463661,-0.0233 0.663362,0.10143 0.902418,0.56371 0.314778,0.60871 0.869523,0.7954 0.99966,0.33641 0.04011,-0.14149 0.179836,-0.65083 0.310496,-1.13187 0.282801,-1.04121 0.490243,-1.09783 0.848995,-0.23172 0.247652,0.59788 0.285438,0.61675 0.539457,0.26936 0.150232,-0.20548 0.27315,-0.5697 0.27315,-0.8094 0,-0.23971 0.120388,-0.60046 0.267529,-0.80169 0.24857,-0.33994 0.285541,-0.32634 0.521654,0.19187 0.239224,0.52504 0.276208,0.53776 0.630779,0.21687 0.35541,-0.32164 0.391362,-0.30536 0.637364,0.28854 0.193706,0.46765 0.356756,0.59892 0.634454,0.51078 0.27338,-0.0868 0.46422,0.0563 0.710651,0.53288 0.247753,0.4791 0.397623,0.59079 0.566349,0.42206 0.126191,-0.12619 0.385335,-0.22944 0.57587,-0.22944 0.190535,0 0.397034,-0.19352 0.458888,-0.43004 0.08498,-0.32497 0.216147,-0.39714 0.536823,-0.29535 0.325564,0.10332 0.480359,0.0118 0.66486,-0.39314 0.132273,-0.29031 0.301978,-0.52783 0.377126,-0.52783 0.07515,0 0.268649,0.42403 0.430005,0.94229 0.161355,0.51825 0.37993,0.95814 0.485722,0.97752 0.105791,0.0194 0.305338,-0.40768 0.443437,-0.94903 0.138098,-0.54135 0.369513,-1.12696 0.514251,-1.30136 0.232172,-0.27975 0.292198,-0.26078 0.509719,0.16109 0.135605,0.263 0.314785,0.80231 0.398173,1.19846 0.247954,1.17795 0.4868,1.51397 0.857474,1.20633 0.258606,-0.21462 0.348983,-0.19875 0.510362,0.0896 0.276103,0.49337 0.481593,0.43729 0.777504,-0.21216 l 0.256328,-0.56258 0.561487,0.68796 c 0.694205,0.85057 1.263624,0.80553 1.503171,-0.11892 0.213297,-0.82314 0.442369,-0.97017 0.988012,-0.63418 0.375453,0.2312 0.474566,0.20435 0.793067,-0.21483 0.418344,-0.55059 0.71371,-0.35159 0.965161,0.65026 0.124773,0.49715 0.220394,0.56176 0.665856,0.44996 0.286088,-0.0718 0.578128,-0.0368 0.648975,0.0779 0.08311,0.13449 0.473603,0.0844 1.100673,-0.14105 l 0.971855,-0.34947 c 1.580552,0.43222 1.697664,1.14872 2.750672,1.38059 z"
       id="path4198"
       inkscape:connector-curvature="0"
       sodipodi:nodetypes="ccssscsscccccssssscsssccssccccsccsccssssscssssssssssscscsssscccccscssssccsscsscsssssssccsscsccsccscssscscccsccssscssssccscsscssscccc" />
    <path
       sodipodi:nodetypes="sssssssscscsssssscscssccsscccss"
       inkscape:connector-curvature="0"
       id="path4255"
       d="m 93.804037,74.333184 c -0.73161,-0.43217 -0.8218,-0.42698 -2.09437,0.12046 -2.11579,0.91019 -4.269829,0.66237 -5.328299,-0.613 -0.29135,-0.35106 -0.67304,-0.39474 -2.16491,-0.24773 -1.67104,0.16466 -1.89299,0.12434 -2.86829,-0.52108 -0.5814,-0.38476 -1.057089,-0.79448 -1.057089,-0.91051 0,-0.11601 -0.24319,-0.47197 -0.54042,-0.79101 -0.52301,-0.56138 -0.56775,-0.56565 -1.38912,-0.13241 -0.46678,0.24621 -1.44823,0.45077 -2.18099,0.45458 -1.69687,0.009 -3.02038,-0.77676 -3.93336,-2.33465 -0.40123,-0.68464 -0.93316,-1.21579 -1.31308,-1.31114 -0.35125,-0.0882 -1.0091,-0.58222 -1.4619,-1.09793 -0.70051,-0.79784 -0.82326,-1.14742 -0.82326,-2.34457 0,-1.02638 0.16318,-1.64907 0.60328,-2.30214 0.86862,-1.28894 1.6383,-1.61389 3.3962,-1.43379 1.43294,0.1468 1.51914,0.11892 2.42103,-0.78297 1.12402,-1.12402 2.35555,-1.24149 3.90222,-0.37221 l 1.00171,0.56299 1.067869,-0.85816 c 0.72801,-0.58505 1.44797,-0.90101 2.2622,-0.99278 1.02341,-0.11536 1.28944,-0.27833 1.8588,-1.13869 1.38563,-2.09382 3.41639,-2.97518 5.817379,-2.52475 1.34295,0.25194 3.28389,2.25635 3.50127,3.61577 0.0912,0.57047 0.23995,1.03678 0.33049,1.03624 0.0905,-5.3e-4 0.56663,-0.24607 1.05796,-0.54561 3.334675,-2.033 7.400223,0.33332 7.663003,4.46021 0.13284,2.08628 -0.49011,3.94994 -1.36179,4.07399 -0.50909,0.0725 -0.59881,0.29198 -0.73665,1.80237 -0.0863,0.94592 -0.34003,2.13659 -0.56379,2.64593 -0.4917,1.11926 -1.899458,2.47446 -2.983578,2.87218 -1.035465,0.37988 -3.116025,0.18133 -4.082515,-0.38959 z"
       style="fill:#f4fdfe;fill-opacity:0.75294119;stroke-width:1" />
  </g>
</svg>
