<?xml version="1.0" encoding="UTF-8" standalone="no"?>
<!-- Created with Inkscape (http://www.inkscape.org/) -->

<svg
   xmlns:dc="http://purl.org/dc/elements/1.1/"
   xmlns:cc="http://creativecommons.org/ns#"
   xmlns:rdf="http://www.w3.org/1999/02/22-rdf-syntax-ns#"
   xmlns:svg="http://www.w3.org/2000/svg"
   xmlns="http://www.w3.org/2000/svg"
   xmlns:sodipodi="http://sodipodi.sourceforge.net/DTD/sodipodi-0.dtd"
   xmlns:inkscape="http://www.inkscape.org/namespaces/inkscape"
   width="48"
   height="48"
   viewBox="0 0 12.7 12.7"
   id="svg2"
   version="1.1"
   inkscape:version="0.91+devel+osxmenu r12911"
   sodipodi:docname="receipt_border.svg">
  <defs
     id="defs4" />
  <sodipodi:namedview
     id="base"
     pagecolor="#ffffff"
     bordercolor="#666666"
     borderopacity="1.0"
     inkscape:pageopacity="0.0"
     inkscape:pageshadow="2"
     inkscape:zoom="6.2395833"
     inkscape:cx="24"
     inkscape:cy="24"
     inkscape:document-units="px"
     inkscape:current-layer="layer1"
     showgrid="true"
     units="px">
    <inkscape:grid
       type="xygrid"
       id="grid4154" />
  </sodipodi:namedview>
  <metadata
     id="metadata7">
    <rdf:RDF>
      <cc:Work
         rdf:about="">
        <dc:format>image/svg+xml</dc:format>
        <dc:type
           rdf:resource="http://purl.org/dc/dcmitype/StillImage" />
        <dc:title></dc:title>
      </cc:Work>
    </rdf:RDF>
  </metadata>
  <g
     inkscape:label="Laag 1"
     inkscape:groupmode="layer"
     id="layer1"
     transform="translate(0,-284.29999)">
    <path
       style="opacity:1;fill:#ffffff;fill-opacity:1;stroke:none;stroke-width:3.99999976;stroke-linecap:round;stroke-linejoin:round;stroke-miterlimit:4;stroke-dasharray:none;stroke-dashoffset:12;stroke-opacity:1"
       d="M 8 0 A 7.9999996 7.9999996 0 0 1 0 8 L 0 16 A 7.9999996 7.9999996 0 0 1 8 24 A 7.9999996 7.9999996 0 0 1 0 32 L 0 40 A 7.9999996 7.9999996 0 0 1 8 48 L 16 48 A 7.9999996 7.9999996 0 0 1 24 40 A 7.9999996 7.9999996 0 0 1 32 48 L 40 48 A 7.9999996 7.9999996 0 0 1 48 40 L 48 32 A 7.9999996 7.9999996 0 0 1 40 24 A 7.9999996 7.9999996 0 0 1 48 16 L 48 8 A 7.9999996 7.9999996 0 0 1 40 0 L 32 0 A 7.9999996 7.9999996 0 0 1 24 8 A 7.9999996 7.9999996 0 0 1 16 0 L 8 0 z "
       transform="matrix(0.26458333,0,0,0.26458333,0,284.29999)"
       id="rect4197" />
  </g>
</svg>
